<mxfile host="app.diagrams.net" modified="2023-06-04T18:23:05.628Z" agent="Mozilla/5.0 (Macintosh; Intel Mac OS X 10_15_7) AppleWebKit/537.36 (KHTML, like Gecko) Chrome/113.0.0.0 Safari/537.36" etag="KMyqZ5eq24HHATHuXFfM" version="21.3.7" type="github" pages="4">
  <diagram name="หน้า-1" id="Kz8PjCfEXZqyRIU9dnhu">
    <mxGraphModel dx="638" dy="337" grid="1" gridSize="10" guides="1" tooltips="1" connect="1" arrows="1" fold="1" page="1" pageScale="1" pageWidth="827" pageHeight="1169" math="0" shadow="0">
      <root>
        <mxCell id="0" />
        <mxCell id="1" parent="0" />
        <mxCell id="5JGTdZed3bRKhOSegWZL-2" value="เริ่ม" style="ellipse;whiteSpace=wrap;html=1;" vertex="1" parent="1">
          <mxGeometry x="212" y="130" width="80" height="40" as="geometry" />
        </mxCell>
        <mxCell id="5JGTdZed3bRKhOSegWZL-3" value="ตรวจสอบสิทธิ์การใช้งาน" style="rounded=1;whiteSpace=wrap;html=1;" vertex="1" parent="1">
          <mxGeometry x="182" y="210" width="140" height="30" as="geometry" />
        </mxCell>
        <mxCell id="5JGTdZed3bRKhOSegWZL-4" value="" style="edgeStyle=orthogonalEdgeStyle;rounded=0;orthogonalLoop=1;jettySize=auto;html=1;" edge="1" parent="1" source="5JGTdZed3bRKhOSegWZL-2" target="5JGTdZed3bRKhOSegWZL-3">
          <mxGeometry relative="1" as="geometry" />
        </mxCell>
        <mxCell id="5JGTdZed3bRKhOSegWZL-5" value="มี ?" style="rhombus;whiteSpace=wrap;html=1;" vertex="1" parent="1">
          <mxGeometry x="222" y="270" width="60" height="60" as="geometry" />
        </mxCell>
        <mxCell id="5JGTdZed3bRKhOSegWZL-6" value="" style="edgeStyle=orthogonalEdgeStyle;rounded=0;orthogonalLoop=1;jettySize=auto;html=1;" edge="1" parent="1" source="5JGTdZed3bRKhOSegWZL-3" target="5JGTdZed3bRKhOSegWZL-5">
          <mxGeometry relative="1" as="geometry" />
        </mxCell>
        <mxCell id="5JGTdZed3bRKhOSegWZL-7" value="สิ้นสุด" style="ellipse;whiteSpace=wrap;html=1;" vertex="1" parent="1">
          <mxGeometry x="407" y="820" width="80" height="40" as="geometry" />
        </mxCell>
        <mxCell id="5JGTdZed3bRKhOSegWZL-8" style="edgeStyle=orthogonalEdgeStyle;rounded=0;orthogonalLoop=1;jettySize=auto;html=1;entryX=0;entryY=0.5;entryDx=0;entryDy=0;" edge="1" parent="1" source="5JGTdZed3bRKhOSegWZL-5" target="5JGTdZed3bRKhOSegWZL-7">
          <mxGeometry relative="1" as="geometry">
            <Array as="points">
              <mxPoint x="252" y="840" />
            </Array>
          </mxGeometry>
        </mxCell>
        <mxCell id="5JGTdZed3bRKhOSegWZL-9" value="ไม่" style="edgeLabel;html=1;align=center;verticalAlign=middle;resizable=0;points=[];" vertex="1" connectable="0" parent="5JGTdZed3bRKhOSegWZL-8">
          <mxGeometry x="-0.8925" y="1" relative="1" as="geometry">
            <mxPoint as="offset" />
          </mxGeometry>
        </mxCell>
        <mxCell id="5JGTdZed3bRKhOSegWZL-10" value="ตรวจสอบ Account &lt;br&gt;สถานะการใช้งาน" style="rounded=1;whiteSpace=wrap;html=1;" vertex="1" parent="1">
          <mxGeometry x="398.35" y="279" width="170" height="40" as="geometry" />
        </mxCell>
        <mxCell id="5JGTdZed3bRKhOSegWZL-11" value="" style="edgeStyle=orthogonalEdgeStyle;rounded=0;orthogonalLoop=1;jettySize=auto;html=1;" edge="1" parent="1" source="5JGTdZed3bRKhOSegWZL-5" target="5JGTdZed3bRKhOSegWZL-10">
          <mxGeometry relative="1" as="geometry">
            <Array as="points">
              <mxPoint x="362" y="300" />
              <mxPoint x="362" y="300" />
            </Array>
          </mxGeometry>
        </mxCell>
        <mxCell id="5JGTdZed3bRKhOSegWZL-12" value="ใช่" style="edgeLabel;html=1;align=center;verticalAlign=middle;resizable=0;points=[];" vertex="1" connectable="0" parent="5JGTdZed3bRKhOSegWZL-11">
          <mxGeometry x="-0.7797" y="-1" relative="1" as="geometry">
            <mxPoint as="offset" />
          </mxGeometry>
        </mxCell>
        <mxCell id="5JGTdZed3bRKhOSegWZL-13" value="มีใน&lt;br&gt;ระบบ &lt;br&gt;?" style="rhombus;whiteSpace=wrap;html=1;" vertex="1" parent="1">
          <mxGeometry x="445.85" y="358" width="75" height="70" as="geometry" />
        </mxCell>
        <mxCell id="5JGTdZed3bRKhOSegWZL-14" value="" style="edgeStyle=orthogonalEdgeStyle;rounded=0;orthogonalLoop=1;jettySize=auto;html=1;" edge="1" parent="1" source="5JGTdZed3bRKhOSegWZL-10" target="5JGTdZed3bRKhOSegWZL-13">
          <mxGeometry relative="1" as="geometry" />
        </mxCell>
        <mxCell id="5JGTdZed3bRKhOSegWZL-15" value="status&lt;br style=&quot;border-color: var(--border-color);&quot;&gt;= 1 ?" style="rhombus;whiteSpace=wrap;html=1;" vertex="1" parent="1">
          <mxGeometry x="453.35" y="478" width="60" height="60" as="geometry" />
        </mxCell>
        <mxCell id="5JGTdZed3bRKhOSegWZL-16" value="" style="edgeStyle=orthogonalEdgeStyle;rounded=0;orthogonalLoop=1;jettySize=auto;html=1;" edge="1" parent="1" source="5JGTdZed3bRKhOSegWZL-13" target="5JGTdZed3bRKhOSegWZL-15">
          <mxGeometry relative="1" as="geometry" />
        </mxCell>
        <mxCell id="5JGTdZed3bRKhOSegWZL-17" value="ใช่" style="edgeLabel;html=1;align=center;verticalAlign=middle;resizable=0;points=[];" vertex="1" connectable="0" parent="5JGTdZed3bRKhOSegWZL-16">
          <mxGeometry x="-0.3254" y="2" relative="1" as="geometry">
            <mxPoint x="-2" as="offset" />
          </mxGeometry>
        </mxCell>
        <mxCell id="5JGTdZed3bRKhOSegWZL-18" value="Locked&lt;br style=&quot;border-color: var(--border-color);&quot;&gt;= 1 ?&amp;nbsp;" style="rhombus;whiteSpace=wrap;html=1;" vertex="1" parent="1">
          <mxGeometry x="453.35" y="608" width="60" height="60" as="geometry" />
        </mxCell>
        <mxCell id="5JGTdZed3bRKhOSegWZL-19" value="" style="edgeStyle=orthogonalEdgeStyle;rounded=0;orthogonalLoop=1;jettySize=auto;html=1;" edge="1" parent="1" source="5JGTdZed3bRKhOSegWZL-15" target="5JGTdZed3bRKhOSegWZL-18">
          <mxGeometry relative="1" as="geometry" />
        </mxCell>
        <mxCell id="5JGTdZed3bRKhOSegWZL-20" value="ไม่" style="edgeLabel;html=1;align=center;verticalAlign=middle;resizable=0;points=[];" vertex="1" connectable="0" parent="5JGTdZed3bRKhOSegWZL-19">
          <mxGeometry x="-0.3745" relative="1" as="geometry">
            <mxPoint as="offset" />
          </mxGeometry>
        </mxCell>
        <mxCell id="5JGTdZed3bRKhOSegWZL-21" style="edgeStyle=orthogonalEdgeStyle;rounded=0;orthogonalLoop=1;jettySize=auto;html=1;entryX=0;entryY=0;entryDx=0;entryDy=0;" edge="1" parent="1" source="5JGTdZed3bRKhOSegWZL-22" target="5JGTdZed3bRKhOSegWZL-7">
          <mxGeometry relative="1" as="geometry">
            <Array as="points">
              <mxPoint x="390" y="820" />
              <mxPoint x="419" y="820" />
            </Array>
          </mxGeometry>
        </mxCell>
        <mxCell id="5JGTdZed3bRKhOSegWZL-22" value="" style="ellipse;whiteSpace=wrap;html=1;aspect=fixed;" vertex="1" parent="1">
          <mxGeometry x="365.75" y="690" width="30" height="30" as="geometry" />
        </mxCell>
        <mxCell id="5JGTdZed3bRKhOSegWZL-23" style="edgeStyle=orthogonalEdgeStyle;rounded=0;orthogonalLoop=1;jettySize=auto;html=1;" edge="1" parent="1" source="5JGTdZed3bRKhOSegWZL-24" target="5JGTdZed3bRKhOSegWZL-22">
          <mxGeometry relative="1" as="geometry">
            <Array as="points">
              <mxPoint x="282" y="393" />
              <mxPoint x="282" y="710" />
            </Array>
          </mxGeometry>
        </mxCell>
        <mxCell id="5JGTdZed3bRKhOSegWZL-24" value="rerturn Error Code&amp;nbsp;001&lt;span style=&quot;font-size: medium; text-align: start;&quot;&gt;&lt;/span&gt;" style="rounded=1;whiteSpace=wrap;html=1;" vertex="1" parent="1">
          <mxGeometry x="292" y="373" width="77.5" height="40" as="geometry" />
        </mxCell>
        <mxCell id="5JGTdZed3bRKhOSegWZL-25" style="edgeStyle=orthogonalEdgeStyle;rounded=0;orthogonalLoop=1;jettySize=auto;html=1;" edge="1" parent="1" source="5JGTdZed3bRKhOSegWZL-13" target="5JGTdZed3bRKhOSegWZL-24">
          <mxGeometry relative="1" as="geometry">
            <mxPoint x="382.1" y="498" as="targetPoint" />
          </mxGeometry>
        </mxCell>
        <mxCell id="5JGTdZed3bRKhOSegWZL-26" value="ไม่" style="edgeLabel;html=1;align=center;verticalAlign=middle;resizable=0;points=[];" vertex="1" connectable="0" parent="5JGTdZed3bRKhOSegWZL-25">
          <mxGeometry x="-0.6573" y="2" relative="1" as="geometry">
            <mxPoint as="offset" />
          </mxGeometry>
        </mxCell>
        <mxCell id="5JGTdZed3bRKhOSegWZL-27" style="edgeStyle=orthogonalEdgeStyle;rounded=0;orthogonalLoop=1;jettySize=auto;html=1;entryX=0.5;entryY=0;entryDx=0;entryDy=0;" edge="1" parent="1" source="5JGTdZed3bRKhOSegWZL-28" target="5JGTdZed3bRKhOSegWZL-22">
          <mxGeometry relative="1" as="geometry" />
        </mxCell>
        <mxCell id="5JGTdZed3bRKhOSegWZL-28" value="rerturn Error Code&amp;nbsp;011&lt;span style=&quot;font-size: medium; text-align: start;&quot;&gt;&lt;/span&gt;" style="rounded=1;whiteSpace=wrap;html=1;" vertex="1" parent="1">
          <mxGeometry x="342" y="618" width="77.5" height="40" as="geometry" />
        </mxCell>
        <mxCell id="5JGTdZed3bRKhOSegWZL-29" value="" style="edgeStyle=orthogonalEdgeStyle;rounded=0;orthogonalLoop=1;jettySize=auto;html=1;" edge="1" parent="1" source="5JGTdZed3bRKhOSegWZL-18" target="5JGTdZed3bRKhOSegWZL-28">
          <mxGeometry relative="1" as="geometry" />
        </mxCell>
        <mxCell id="5JGTdZed3bRKhOSegWZL-30" value="ใช่" style="edgeLabel;html=1;align=center;verticalAlign=middle;resizable=0;points=[];" vertex="1" connectable="0" parent="5JGTdZed3bRKhOSegWZL-29">
          <mxGeometry x="-0.4608" y="1" relative="1" as="geometry">
            <mxPoint as="offset" />
          </mxGeometry>
        </mxCell>
        <mxCell id="5JGTdZed3bRKhOSegWZL-31" style="edgeStyle=orthogonalEdgeStyle;rounded=0;orthogonalLoop=1;jettySize=auto;html=1;" edge="1" parent="1" source="5JGTdZed3bRKhOSegWZL-32" target="5JGTdZed3bRKhOSegWZL-22">
          <mxGeometry relative="1" as="geometry">
            <mxPoint x="382" y="700" as="targetPoint" />
            <Array as="points">
              <mxPoint x="322" y="508" />
              <mxPoint x="322" y="694" />
            </Array>
          </mxGeometry>
        </mxCell>
        <mxCell id="5JGTdZed3bRKhOSegWZL-32" value="rerturn Error Code&amp;nbsp;004&lt;span style=&quot;font-size: medium; text-align: start;&quot;&gt;&lt;/span&gt;" style="rounded=1;whiteSpace=wrap;html=1;" vertex="1" parent="1">
          <mxGeometry x="342" y="488" width="77.5" height="40" as="geometry" />
        </mxCell>
        <mxCell id="5JGTdZed3bRKhOSegWZL-33" value="" style="edgeStyle=orthogonalEdgeStyle;rounded=0;orthogonalLoop=1;jettySize=auto;html=1;" edge="1" parent="1" source="5JGTdZed3bRKhOSegWZL-15" target="5JGTdZed3bRKhOSegWZL-32">
          <mxGeometry relative="1" as="geometry" />
        </mxCell>
        <mxCell id="5JGTdZed3bRKhOSegWZL-34" value="ใช่" style="edgeLabel;html=1;align=center;verticalAlign=middle;resizable=0;points=[];" vertex="1" connectable="0" parent="5JGTdZed3bRKhOSegWZL-33">
          <mxGeometry x="-0.4608" y="2" relative="1" as="geometry">
            <mxPoint as="offset" />
          </mxGeometry>
        </mxCell>
        <mxCell id="5JGTdZed3bRKhOSegWZL-35" value="ดึงข้อมูลบริษัทผู้ตรวจสอบบัญชีทั้งหมด&lt;span style=&quot;font-size: medium; text-align: start;&quot;&gt;&lt;/span&gt;" style="rounded=1;whiteSpace=wrap;html=1;" vertex="1" parent="1">
          <mxGeometry x="554.17" y="614" width="105.85" height="48" as="geometry" />
        </mxCell>
        <mxCell id="5JGTdZed3bRKhOSegWZL-36" value="" style="edgeStyle=orthogonalEdgeStyle;rounded=0;orthogonalLoop=1;jettySize=auto;html=1;" edge="1" parent="1" source="5JGTdZed3bRKhOSegWZL-18" target="5JGTdZed3bRKhOSegWZL-35">
          <mxGeometry relative="1" as="geometry" />
        </mxCell>
        <mxCell id="5JGTdZed3bRKhOSegWZL-37" style="edgeStyle=orthogonalEdgeStyle;rounded=0;orthogonalLoop=1;jettySize=auto;html=1;entryX=1;entryY=0.5;entryDx=0;entryDy=0;" edge="1" parent="1" source="5JGTdZed3bRKhOSegWZL-38" target="5JGTdZed3bRKhOSegWZL-7">
          <mxGeometry relative="1" as="geometry" />
        </mxCell>
        <mxCell id="5JGTdZed3bRKhOSegWZL-38" value="ส่งข้อมูลบริษัทผู้ตรวจสอบบัญชีกลับไป" style="rounded=1;whiteSpace=wrap;html=1;" vertex="1" parent="1">
          <mxGeometry x="546.27" y="710" width="121.65" height="50" as="geometry" />
        </mxCell>
        <mxCell id="5JGTdZed3bRKhOSegWZL-39" value="" style="edgeStyle=orthogonalEdgeStyle;rounded=0;orthogonalLoop=1;jettySize=auto;html=1;" edge="1" parent="1" source="5JGTdZed3bRKhOSegWZL-35" target="5JGTdZed3bRKhOSegWZL-38">
          <mxGeometry relative="1" as="geometry" />
        </mxCell>
      </root>
    </mxGraphModel>
  </diagram>
  <diagram id="vzQ4V0y2oSh7vBgiHig2" name="หน้า-2">
    <mxGraphModel dx="1472" dy="778" grid="1" gridSize="10" guides="1" tooltips="1" connect="1" arrows="1" fold="1" page="1" pageScale="1" pageWidth="827" pageHeight="1169" math="0" shadow="0">
      <root>
        <mxCell id="0" />
        <mxCell id="1" parent="0" />
        <mxCell id="NxATDNA0CrrNzw4P3sYw-1" value="" style="group" vertex="1" connectable="0" parent="1">
          <mxGeometry x="60" y="110" width="707.5" height="730" as="geometry" />
        </mxCell>
        <mxCell id="NxATDNA0CrrNzw4P3sYw-2" value="เริ่ม" style="ellipse;whiteSpace=wrap;html=1;" vertex="1" parent="NxATDNA0CrrNzw4P3sYw-1">
          <mxGeometry x="30" width="80" height="40" as="geometry" />
        </mxCell>
        <mxCell id="NxATDNA0CrrNzw4P3sYw-3" value="ตรวจสอบสิทธิ์การใช้งาน" style="rounded=1;whiteSpace=wrap;html=1;" vertex="1" parent="NxATDNA0CrrNzw4P3sYw-1">
          <mxGeometry y="80" width="140" height="30" as="geometry" />
        </mxCell>
        <mxCell id="NxATDNA0CrrNzw4P3sYw-4" value="" style="edgeStyle=orthogonalEdgeStyle;rounded=0;orthogonalLoop=1;jettySize=auto;html=1;" edge="1" parent="NxATDNA0CrrNzw4P3sYw-1" source="NxATDNA0CrrNzw4P3sYw-2" target="NxATDNA0CrrNzw4P3sYw-3">
          <mxGeometry relative="1" as="geometry" />
        </mxCell>
        <mxCell id="NxATDNA0CrrNzw4P3sYw-5" value="มี ?" style="rhombus;whiteSpace=wrap;html=1;" vertex="1" parent="NxATDNA0CrrNzw4P3sYw-1">
          <mxGeometry x="40" y="140" width="60" height="60" as="geometry" />
        </mxCell>
        <mxCell id="NxATDNA0CrrNzw4P3sYw-6" value="" style="edgeStyle=orthogonalEdgeStyle;rounded=0;orthogonalLoop=1;jettySize=auto;html=1;" edge="1" parent="NxATDNA0CrrNzw4P3sYw-1" source="NxATDNA0CrrNzw4P3sYw-3" target="NxATDNA0CrrNzw4P3sYw-5">
          <mxGeometry relative="1" as="geometry" />
        </mxCell>
        <mxCell id="NxATDNA0CrrNzw4P3sYw-7" value="สิ้นสุด" style="ellipse;whiteSpace=wrap;html=1;" vertex="1" parent="NxATDNA0CrrNzw4P3sYw-1">
          <mxGeometry x="225" y="690" width="80" height="40" as="geometry" />
        </mxCell>
        <mxCell id="NxATDNA0CrrNzw4P3sYw-8" style="edgeStyle=orthogonalEdgeStyle;rounded=0;orthogonalLoop=1;jettySize=auto;html=1;entryX=0;entryY=0.5;entryDx=0;entryDy=0;" edge="1" parent="NxATDNA0CrrNzw4P3sYw-1" source="NxATDNA0CrrNzw4P3sYw-5" target="NxATDNA0CrrNzw4P3sYw-7">
          <mxGeometry relative="1" as="geometry">
            <Array as="points">
              <mxPoint x="70" y="710" />
            </Array>
          </mxGeometry>
        </mxCell>
        <mxCell id="NxATDNA0CrrNzw4P3sYw-9" value="ไม่" style="edgeLabel;html=1;align=center;verticalAlign=middle;resizable=0;points=[];" vertex="1" connectable="0" parent="NxATDNA0CrrNzw4P3sYw-8">
          <mxGeometry x="-0.8925" y="1" relative="1" as="geometry">
            <mxPoint as="offset" />
          </mxGeometry>
        </mxCell>
        <mxCell id="NxATDNA0CrrNzw4P3sYw-10" value="ตรวจสอบ Account &lt;br&gt;สถานะการใช้งาน" style="rounded=1;whiteSpace=wrap;html=1;" vertex="1" parent="NxATDNA0CrrNzw4P3sYw-1">
          <mxGeometry x="216.3499999999999" y="149" width="170" height="40" as="geometry" />
        </mxCell>
        <mxCell id="NxATDNA0CrrNzw4P3sYw-11" value="" style="edgeStyle=orthogonalEdgeStyle;rounded=0;orthogonalLoop=1;jettySize=auto;html=1;" edge="1" parent="NxATDNA0CrrNzw4P3sYw-1" source="NxATDNA0CrrNzw4P3sYw-5" target="NxATDNA0CrrNzw4P3sYw-10">
          <mxGeometry relative="1" as="geometry">
            <Array as="points">
              <mxPoint x="180" y="170" />
              <mxPoint x="180" y="170" />
            </Array>
          </mxGeometry>
        </mxCell>
        <mxCell id="NxATDNA0CrrNzw4P3sYw-12" value="ใช่" style="edgeLabel;html=1;align=center;verticalAlign=middle;resizable=0;points=[];" vertex="1" connectable="0" parent="NxATDNA0CrrNzw4P3sYw-11">
          <mxGeometry x="-0.7797" y="-1" relative="1" as="geometry">
            <mxPoint as="offset" />
          </mxGeometry>
        </mxCell>
        <mxCell id="NxATDNA0CrrNzw4P3sYw-13" value="มีใน&lt;br&gt;ระบบ &lt;br&gt;?" style="rhombus;whiteSpace=wrap;html=1;" vertex="1" parent="NxATDNA0CrrNzw4P3sYw-1">
          <mxGeometry x="263.8499999999999" y="228" width="75" height="70" as="geometry" />
        </mxCell>
        <mxCell id="NxATDNA0CrrNzw4P3sYw-14" value="" style="edgeStyle=orthogonalEdgeStyle;rounded=0;orthogonalLoop=1;jettySize=auto;html=1;" edge="1" parent="NxATDNA0CrrNzw4P3sYw-1" source="NxATDNA0CrrNzw4P3sYw-10" target="NxATDNA0CrrNzw4P3sYw-13">
          <mxGeometry relative="1" as="geometry" />
        </mxCell>
        <mxCell id="NxATDNA0CrrNzw4P3sYw-15" value="status&lt;br style=&quot;border-color: var(--border-color);&quot;&gt;= 1 ?" style="rhombus;whiteSpace=wrap;html=1;" vertex="1" parent="NxATDNA0CrrNzw4P3sYw-1">
          <mxGeometry x="271.3499999999999" y="348" width="60" height="60" as="geometry" />
        </mxCell>
        <mxCell id="NxATDNA0CrrNzw4P3sYw-16" value="" style="edgeStyle=orthogonalEdgeStyle;rounded=0;orthogonalLoop=1;jettySize=auto;html=1;" edge="1" parent="NxATDNA0CrrNzw4P3sYw-1" source="NxATDNA0CrrNzw4P3sYw-13" target="NxATDNA0CrrNzw4P3sYw-15">
          <mxGeometry relative="1" as="geometry" />
        </mxCell>
        <mxCell id="NxATDNA0CrrNzw4P3sYw-17" value="ใช่" style="edgeLabel;html=1;align=center;verticalAlign=middle;resizable=0;points=[];" vertex="1" connectable="0" parent="NxATDNA0CrrNzw4P3sYw-16">
          <mxGeometry x="-0.3254" y="2" relative="1" as="geometry">
            <mxPoint x="-2" as="offset" />
          </mxGeometry>
        </mxCell>
        <mxCell id="NxATDNA0CrrNzw4P3sYw-18" value="Locked&lt;br style=&quot;border-color: var(--border-color);&quot;&gt;= 1 ?&amp;nbsp;" style="rhombus;whiteSpace=wrap;html=1;" vertex="1" parent="NxATDNA0CrrNzw4P3sYw-1">
          <mxGeometry x="271.3499999999999" y="478" width="60" height="60" as="geometry" />
        </mxCell>
        <mxCell id="NxATDNA0CrrNzw4P3sYw-19" value="" style="edgeStyle=orthogonalEdgeStyle;rounded=0;orthogonalLoop=1;jettySize=auto;html=1;" edge="1" parent="NxATDNA0CrrNzw4P3sYw-1" source="NxATDNA0CrrNzw4P3sYw-15" target="NxATDNA0CrrNzw4P3sYw-18">
          <mxGeometry relative="1" as="geometry" />
        </mxCell>
        <mxCell id="NxATDNA0CrrNzw4P3sYw-20" value="ไม่" style="edgeLabel;html=1;align=center;verticalAlign=middle;resizable=0;points=[];" vertex="1" connectable="0" parent="NxATDNA0CrrNzw4P3sYw-19">
          <mxGeometry x="-0.3745" relative="1" as="geometry">
            <mxPoint as="offset" />
          </mxGeometry>
        </mxCell>
        <mxCell id="NxATDNA0CrrNzw4P3sYw-21" style="edgeStyle=orthogonalEdgeStyle;rounded=0;orthogonalLoop=1;jettySize=auto;html=1;entryX=0;entryY=0;entryDx=0;entryDy=0;" edge="1" parent="NxATDNA0CrrNzw4P3sYw-1" source="NxATDNA0CrrNzw4P3sYw-22" target="NxATDNA0CrrNzw4P3sYw-7">
          <mxGeometry relative="1" as="geometry">
            <Array as="points">
              <mxPoint x="208" y="690" />
              <mxPoint x="237" y="690" />
            </Array>
          </mxGeometry>
        </mxCell>
        <mxCell id="NxATDNA0CrrNzw4P3sYw-22" value="" style="ellipse;whiteSpace=wrap;html=1;aspect=fixed;" vertex="1" parent="NxATDNA0CrrNzw4P3sYw-1">
          <mxGeometry x="183.75" y="560" width="30" height="30" as="geometry" />
        </mxCell>
        <mxCell id="NxATDNA0CrrNzw4P3sYw-23" style="edgeStyle=orthogonalEdgeStyle;rounded=0;orthogonalLoop=1;jettySize=auto;html=1;" edge="1" parent="NxATDNA0CrrNzw4P3sYw-1" source="NxATDNA0CrrNzw4P3sYw-24" target="NxATDNA0CrrNzw4P3sYw-22">
          <mxGeometry relative="1" as="geometry">
            <Array as="points">
              <mxPoint x="100" y="263" />
              <mxPoint x="100" y="580" />
            </Array>
          </mxGeometry>
        </mxCell>
        <mxCell id="NxATDNA0CrrNzw4P3sYw-24" value="rerturn Error Code&amp;nbsp;001&lt;span style=&quot;font-size: medium; text-align: start;&quot;&gt;&lt;/span&gt;" style="rounded=1;whiteSpace=wrap;html=1;" vertex="1" parent="NxATDNA0CrrNzw4P3sYw-1">
          <mxGeometry x="110" y="243" width="77.5" height="40" as="geometry" />
        </mxCell>
        <mxCell id="NxATDNA0CrrNzw4P3sYw-25" style="edgeStyle=orthogonalEdgeStyle;rounded=0;orthogonalLoop=1;jettySize=auto;html=1;" edge="1" parent="NxATDNA0CrrNzw4P3sYw-1" source="NxATDNA0CrrNzw4P3sYw-13" target="NxATDNA0CrrNzw4P3sYw-24">
          <mxGeometry relative="1" as="geometry">
            <mxPoint x="200.0999999999999" y="368" as="targetPoint" />
          </mxGeometry>
        </mxCell>
        <mxCell id="NxATDNA0CrrNzw4P3sYw-26" value="ไม่" style="edgeLabel;html=1;align=center;verticalAlign=middle;resizable=0;points=[];" vertex="1" connectable="0" parent="NxATDNA0CrrNzw4P3sYw-25">
          <mxGeometry x="-0.6573" y="2" relative="1" as="geometry">
            <mxPoint as="offset" />
          </mxGeometry>
        </mxCell>
        <mxCell id="NxATDNA0CrrNzw4P3sYw-27" style="edgeStyle=orthogonalEdgeStyle;rounded=0;orthogonalLoop=1;jettySize=auto;html=1;entryX=0.5;entryY=0;entryDx=0;entryDy=0;" edge="1" parent="NxATDNA0CrrNzw4P3sYw-1" source="NxATDNA0CrrNzw4P3sYw-28" target="NxATDNA0CrrNzw4P3sYw-22">
          <mxGeometry relative="1" as="geometry" />
        </mxCell>
        <mxCell id="NxATDNA0CrrNzw4P3sYw-28" value="rerturn Error Code&amp;nbsp;011&lt;span style=&quot;font-size: medium; text-align: start;&quot;&gt;&lt;/span&gt;" style="rounded=1;whiteSpace=wrap;html=1;" vertex="1" parent="NxATDNA0CrrNzw4P3sYw-1">
          <mxGeometry x="160" y="488" width="77.5" height="40" as="geometry" />
        </mxCell>
        <mxCell id="NxATDNA0CrrNzw4P3sYw-29" value="" style="edgeStyle=orthogonalEdgeStyle;rounded=0;orthogonalLoop=1;jettySize=auto;html=1;" edge="1" parent="NxATDNA0CrrNzw4P3sYw-1" source="NxATDNA0CrrNzw4P3sYw-18" target="NxATDNA0CrrNzw4P3sYw-28">
          <mxGeometry relative="1" as="geometry" />
        </mxCell>
        <mxCell id="NxATDNA0CrrNzw4P3sYw-30" value="ใช่" style="edgeLabel;html=1;align=center;verticalAlign=middle;resizable=0;points=[];" vertex="1" connectable="0" parent="NxATDNA0CrrNzw4P3sYw-29">
          <mxGeometry x="-0.4608" y="1" relative="1" as="geometry">
            <mxPoint as="offset" />
          </mxGeometry>
        </mxCell>
        <mxCell id="NxATDNA0CrrNzw4P3sYw-31" style="edgeStyle=orthogonalEdgeStyle;rounded=0;orthogonalLoop=1;jettySize=auto;html=1;" edge="1" parent="NxATDNA0CrrNzw4P3sYw-1" source="NxATDNA0CrrNzw4P3sYw-32" target="NxATDNA0CrrNzw4P3sYw-22">
          <mxGeometry relative="1" as="geometry">
            <mxPoint x="200" y="570" as="targetPoint" />
            <Array as="points">
              <mxPoint x="140" y="378" />
              <mxPoint x="140" y="564" />
            </Array>
          </mxGeometry>
        </mxCell>
        <mxCell id="NxATDNA0CrrNzw4P3sYw-32" value="rerturn Error Code&amp;nbsp;004&lt;span style=&quot;font-size: medium; text-align: start;&quot;&gt;&lt;/span&gt;" style="rounded=1;whiteSpace=wrap;html=1;" vertex="1" parent="NxATDNA0CrrNzw4P3sYw-1">
          <mxGeometry x="160" y="358" width="77.5" height="40" as="geometry" />
        </mxCell>
        <mxCell id="NxATDNA0CrrNzw4P3sYw-33" value="" style="edgeStyle=orthogonalEdgeStyle;rounded=0;orthogonalLoop=1;jettySize=auto;html=1;" edge="1" parent="NxATDNA0CrrNzw4P3sYw-1" source="NxATDNA0CrrNzw4P3sYw-15" target="NxATDNA0CrrNzw4P3sYw-32">
          <mxGeometry relative="1" as="geometry" />
        </mxCell>
        <mxCell id="NxATDNA0CrrNzw4P3sYw-34" value="ใช่" style="edgeLabel;html=1;align=center;verticalAlign=middle;resizable=0;points=[];" vertex="1" connectable="0" parent="NxATDNA0CrrNzw4P3sYw-33">
          <mxGeometry x="-0.4608" y="2" relative="1" as="geometry">
            <mxPoint as="offset" />
          </mxGeometry>
        </mxCell>
        <mxCell id="NxATDNA0CrrNzw4P3sYw-35" value="ดึงข้อมูลบริษัทผู้ตรวจสอบบัญชีด้วย&lt;br&gt;รหัสอ้างอิงที่ได้รับ&lt;span style=&quot;font-size: medium; text-align: start;&quot;&gt;&lt;/span&gt;" style="rounded=1;whiteSpace=wrap;html=1;" vertex="1" parent="NxATDNA0CrrNzw4P3sYw-1">
          <mxGeometry x="363" y="477" width="123.65" height="62" as="geometry" />
        </mxCell>
        <mxCell id="NxATDNA0CrrNzw4P3sYw-36" value="" style="edgeStyle=orthogonalEdgeStyle;rounded=0;orthogonalLoop=1;jettySize=auto;html=1;" edge="1" parent="NxATDNA0CrrNzw4P3sYw-1" source="NxATDNA0CrrNzw4P3sYw-18" target="NxATDNA0CrrNzw4P3sYw-35">
          <mxGeometry relative="1" as="geometry" />
        </mxCell>
        <mxCell id="NxATDNA0CrrNzw4P3sYw-37" value="ส่งข้อมูลบริษัทผู้ตรวจสอบบัญชีกลับไป" style="rounded=1;whiteSpace=wrap;html=1;" vertex="1" parent="NxATDNA0CrrNzw4P3sYw-1">
          <mxGeometry x="386.3499999999999" y="630" width="77.5" height="40" as="geometry" />
        </mxCell>
        <mxCell id="NxATDNA0CrrNzw4P3sYw-38" style="edgeStyle=orthogonalEdgeStyle;rounded=0;orthogonalLoop=1;jettySize=auto;html=1;entryX=1;entryY=0.5;entryDx=0;entryDy=0;" edge="1" parent="NxATDNA0CrrNzw4P3sYw-1" source="NxATDNA0CrrNzw4P3sYw-40" target="NxATDNA0CrrNzw4P3sYw-37">
          <mxGeometry relative="1" as="geometry">
            <Array as="points">
              <mxPoint x="560" y="650" />
            </Array>
          </mxGeometry>
        </mxCell>
        <mxCell id="NxATDNA0CrrNzw4P3sYw-39" value="ใช่" style="edgeLabel;html=1;align=center;verticalAlign=middle;resizable=0;points=[];" vertex="1" connectable="0" parent="NxATDNA0CrrNzw4P3sYw-38">
          <mxGeometry x="-0.7968" y="2" relative="1" as="geometry">
            <mxPoint as="offset" />
          </mxGeometry>
        </mxCell>
        <mxCell id="NxATDNA0CrrNzw4P3sYw-40" value="มี ?" style="rhombus;whiteSpace=wrap;html=1;" vertex="1" parent="NxATDNA0CrrNzw4P3sYw-1">
          <mxGeometry x="530" y="545" width="60" height="60" as="geometry" />
        </mxCell>
        <mxCell id="NxATDNA0CrrNzw4P3sYw-41" value="" style="edgeStyle=orthogonalEdgeStyle;rounded=0;orthogonalLoop=1;jettySize=auto;html=1;" edge="1" parent="NxATDNA0CrrNzw4P3sYw-1" source="NxATDNA0CrrNzw4P3sYw-35" target="NxATDNA0CrrNzw4P3sYw-40">
          <mxGeometry relative="1" as="geometry" />
        </mxCell>
        <mxCell id="NxATDNA0CrrNzw4P3sYw-42" value="rerturn Error Code&amp;nbsp;016&lt;span style=&quot;font-size: medium; text-align: start;&quot;&gt;&lt;/span&gt;" style="rounded=1;whiteSpace=wrap;html=1;" vertex="1" parent="NxATDNA0CrrNzw4P3sYw-1">
          <mxGeometry x="630" y="555" width="77.5" height="40" as="geometry" />
        </mxCell>
        <mxCell id="NxATDNA0CrrNzw4P3sYw-43" value="" style="edgeStyle=orthogonalEdgeStyle;rounded=0;orthogonalLoop=1;jettySize=auto;html=1;" edge="1" parent="NxATDNA0CrrNzw4P3sYw-1" source="NxATDNA0CrrNzw4P3sYw-40" target="NxATDNA0CrrNzw4P3sYw-42">
          <mxGeometry relative="1" as="geometry" />
        </mxCell>
        <mxCell id="NxATDNA0CrrNzw4P3sYw-44" value="ไม่" style="edgeLabel;html=1;align=center;verticalAlign=middle;resizable=0;points=[];" vertex="1" connectable="0" parent="NxATDNA0CrrNzw4P3sYw-43">
          <mxGeometry x="-0.1637" relative="1" as="geometry">
            <mxPoint as="offset" />
          </mxGeometry>
        </mxCell>
        <mxCell id="NxATDNA0CrrNzw4P3sYw-45" style="edgeStyle=orthogonalEdgeStyle;rounded=0;orthogonalLoop=1;jettySize=auto;html=1;" edge="1" parent="NxATDNA0CrrNzw4P3sYw-1" source="NxATDNA0CrrNzw4P3sYw-46" target="NxATDNA0CrrNzw4P3sYw-7">
          <mxGeometry relative="1" as="geometry" />
        </mxCell>
        <mxCell id="NxATDNA0CrrNzw4P3sYw-46" value="" style="ellipse;whiteSpace=wrap;html=1;aspect=fixed;" vertex="1" parent="NxATDNA0CrrNzw4P3sYw-1">
          <mxGeometry x="346" y="695" width="30" height="30" as="geometry" />
        </mxCell>
        <mxCell id="NxATDNA0CrrNzw4P3sYw-47" style="edgeStyle=orthogonalEdgeStyle;rounded=0;orthogonalLoop=1;jettySize=auto;html=1;" edge="1" parent="NxATDNA0CrrNzw4P3sYw-1" source="NxATDNA0CrrNzw4P3sYw-37" target="NxATDNA0CrrNzw4P3sYw-46">
          <mxGeometry relative="1" as="geometry" />
        </mxCell>
        <mxCell id="NxATDNA0CrrNzw4P3sYw-48" style="edgeStyle=orthogonalEdgeStyle;rounded=0;orthogonalLoop=1;jettySize=auto;html=1;entryX=1;entryY=0.5;entryDx=0;entryDy=0;" edge="1" parent="NxATDNA0CrrNzw4P3sYw-1" source="NxATDNA0CrrNzw4P3sYw-42" target="NxATDNA0CrrNzw4P3sYw-46">
          <mxGeometry relative="1" as="geometry">
            <mxPoint x="660" y="710" as="targetPoint" />
            <Array as="points">
              <mxPoint x="669" y="710" />
            </Array>
          </mxGeometry>
        </mxCell>
      </root>
    </mxGraphModel>
  </diagram>
  <diagram id="6a9K0mdrot_wVBFH4KcZ" name="หน้า-3">
    <mxGraphModel dx="1914" dy="1011" grid="1" gridSize="10" guides="1" tooltips="1" connect="1" arrows="1" fold="1" page="1" pageScale="1" pageWidth="827" pageHeight="1169" math="0" shadow="0">
      <root>
        <mxCell id="0" />
        <mxCell id="1" parent="0" />
        <mxCell id="QqwJ9RMor9vU-qUxJGw9-1" value="" style="group" vertex="1" connectable="0" parent="1">
          <mxGeometry x="65" y="100" width="697.5" height="730" as="geometry" />
        </mxCell>
        <mxCell id="QqwJ9RMor9vU-qUxJGw9-2" value="เริ่ม" style="ellipse;whiteSpace=wrap;html=1;" vertex="1" parent="QqwJ9RMor9vU-qUxJGw9-1">
          <mxGeometry x="30" width="80" height="40" as="geometry" />
        </mxCell>
        <mxCell id="QqwJ9RMor9vU-qUxJGw9-3" value="ตรวจสอบสิทธิ์การใช้งาน" style="rounded=1;whiteSpace=wrap;html=1;" vertex="1" parent="QqwJ9RMor9vU-qUxJGw9-1">
          <mxGeometry y="80" width="140" height="30" as="geometry" />
        </mxCell>
        <mxCell id="QqwJ9RMor9vU-qUxJGw9-4" value="" style="edgeStyle=orthogonalEdgeStyle;rounded=0;orthogonalLoop=1;jettySize=auto;html=1;" edge="1" parent="QqwJ9RMor9vU-qUxJGw9-1" source="QqwJ9RMor9vU-qUxJGw9-2" target="QqwJ9RMor9vU-qUxJGw9-3">
          <mxGeometry relative="1" as="geometry" />
        </mxCell>
        <mxCell id="QqwJ9RMor9vU-qUxJGw9-5" value="มี ?" style="rhombus;whiteSpace=wrap;html=1;" vertex="1" parent="QqwJ9RMor9vU-qUxJGw9-1">
          <mxGeometry x="40" y="140" width="60" height="60" as="geometry" />
        </mxCell>
        <mxCell id="QqwJ9RMor9vU-qUxJGw9-6" value="" style="edgeStyle=orthogonalEdgeStyle;rounded=0;orthogonalLoop=1;jettySize=auto;html=1;" edge="1" parent="QqwJ9RMor9vU-qUxJGw9-1" source="QqwJ9RMor9vU-qUxJGw9-3" target="QqwJ9RMor9vU-qUxJGw9-5">
          <mxGeometry relative="1" as="geometry" />
        </mxCell>
        <mxCell id="QqwJ9RMor9vU-qUxJGw9-7" value="สิ้นสุด" style="ellipse;whiteSpace=wrap;html=1;" vertex="1" parent="QqwJ9RMor9vU-qUxJGw9-1">
          <mxGeometry x="225" y="690" width="80" height="40" as="geometry" />
        </mxCell>
        <mxCell id="QqwJ9RMor9vU-qUxJGw9-8" style="edgeStyle=orthogonalEdgeStyle;rounded=0;orthogonalLoop=1;jettySize=auto;html=1;entryX=0;entryY=0.5;entryDx=0;entryDy=0;" edge="1" parent="QqwJ9RMor9vU-qUxJGw9-1" source="QqwJ9RMor9vU-qUxJGw9-5" target="QqwJ9RMor9vU-qUxJGw9-7">
          <mxGeometry relative="1" as="geometry">
            <Array as="points">
              <mxPoint x="70" y="710" />
            </Array>
          </mxGeometry>
        </mxCell>
        <mxCell id="QqwJ9RMor9vU-qUxJGw9-9" value="ไม่" style="edgeLabel;html=1;align=center;verticalAlign=middle;resizable=0;points=[];" vertex="1" connectable="0" parent="QqwJ9RMor9vU-qUxJGw9-8">
          <mxGeometry x="-0.8925" y="1" relative="1" as="geometry">
            <mxPoint as="offset" />
          </mxGeometry>
        </mxCell>
        <mxCell id="QqwJ9RMor9vU-qUxJGw9-10" value="ตรวจสอบ Account &lt;br&gt;สถานะการใช้งาน" style="rounded=1;whiteSpace=wrap;html=1;" vertex="1" parent="QqwJ9RMor9vU-qUxJGw9-1">
          <mxGeometry x="275.9999999999999" y="150" width="170" height="40" as="geometry" />
        </mxCell>
        <mxCell id="QqwJ9RMor9vU-qUxJGw9-11" value="" style="edgeStyle=orthogonalEdgeStyle;rounded=0;orthogonalLoop=1;jettySize=auto;html=1;" edge="1" parent="QqwJ9RMor9vU-qUxJGw9-1" source="QqwJ9RMor9vU-qUxJGw9-5" target="QqwJ9RMor9vU-qUxJGw9-10">
          <mxGeometry relative="1" as="geometry">
            <Array as="points">
              <mxPoint x="180" y="170" />
              <mxPoint x="180" y="170" />
            </Array>
          </mxGeometry>
        </mxCell>
        <mxCell id="QqwJ9RMor9vU-qUxJGw9-12" value="ใช่" style="edgeLabel;html=1;align=center;verticalAlign=middle;resizable=0;points=[];" vertex="1" connectable="0" parent="QqwJ9RMor9vU-qUxJGw9-11">
          <mxGeometry x="-0.7797" y="-1" relative="1" as="geometry">
            <mxPoint as="offset" />
          </mxGeometry>
        </mxCell>
        <mxCell id="QqwJ9RMor9vU-qUxJGw9-13" value="" style="edgeStyle=orthogonalEdgeStyle;rounded=0;orthogonalLoop=1;jettySize=auto;html=1;" edge="1" parent="QqwJ9RMor9vU-qUxJGw9-1" source="QqwJ9RMor9vU-qUxJGw9-10" target="QqwJ9RMor9vU-qUxJGw9-30">
          <mxGeometry relative="1" as="geometry" />
        </mxCell>
        <mxCell id="QqwJ9RMor9vU-qUxJGw9-14" style="edgeStyle=orthogonalEdgeStyle;rounded=0;orthogonalLoop=1;jettySize=auto;html=1;entryX=0;entryY=0;entryDx=0;entryDy=0;" edge="1" parent="QqwJ9RMor9vU-qUxJGw9-1" target="QqwJ9RMor9vU-qUxJGw9-7">
          <mxGeometry relative="1" as="geometry">
            <Array as="points">
              <mxPoint x="208" y="690" />
              <mxPoint x="237" y="690" />
            </Array>
            <mxPoint x="160" y="680" as="sourcePoint" />
          </mxGeometry>
        </mxCell>
        <mxCell id="QqwJ9RMor9vU-qUxJGw9-15" value="" style="ellipse;whiteSpace=wrap;html=1;aspect=fixed;" vertex="1" parent="QqwJ9RMor9vU-qUxJGw9-1">
          <mxGeometry x="137.5" y="660" width="30" height="30" as="geometry" />
        </mxCell>
        <mxCell id="QqwJ9RMor9vU-qUxJGw9-16" value="มี ?" style="rhombus;whiteSpace=wrap;html=1;" vertex="1" parent="QqwJ9RMor9vU-qUxJGw9-1">
          <mxGeometry x="530" y="545" width="60" height="60" as="geometry" />
        </mxCell>
        <mxCell id="QqwJ9RMor9vU-qUxJGw9-17" value="rerturn Error Code&amp;nbsp;017&lt;span style=&quot;font-size: medium; text-align: start;&quot;&gt;&lt;/span&gt;" style="rounded=1;whiteSpace=wrap;html=1;" vertex="1" parent="QqwJ9RMor9vU-qUxJGw9-1">
          <mxGeometry x="321.45000000000005" y="625" width="77.5" height="40" as="geometry" />
        </mxCell>
        <mxCell id="QqwJ9RMor9vU-qUxJGw9-18" style="edgeStyle=orthogonalEdgeStyle;rounded=0;orthogonalLoop=1;jettySize=auto;html=1;" edge="1" parent="QqwJ9RMor9vU-qUxJGw9-1" source="QqwJ9RMor9vU-qUxJGw9-19" target="QqwJ9RMor9vU-qUxJGw9-7">
          <mxGeometry relative="1" as="geometry" />
        </mxCell>
        <mxCell id="QqwJ9RMor9vU-qUxJGw9-19" value="" style="ellipse;whiteSpace=wrap;html=1;aspect=fixed;" vertex="1" parent="QqwJ9RMor9vU-qUxJGw9-1">
          <mxGeometry x="346" y="695" width="30" height="30" as="geometry" />
        </mxCell>
        <mxCell id="QqwJ9RMor9vU-qUxJGw9-20" style="edgeStyle=orthogonalEdgeStyle;rounded=0;orthogonalLoop=1;jettySize=auto;html=1;" edge="1" parent="QqwJ9RMor9vU-qUxJGw9-1" source="QqwJ9RMor9vU-qUxJGw9-17" target="QqwJ9RMor9vU-qUxJGw9-19">
          <mxGeometry relative="1" as="geometry" />
        </mxCell>
        <mxCell id="QqwJ9RMor9vU-qUxJGw9-21" value="สร้างข้อมูลประเทศ&lt;span style=&quot;font-size: medium; text-align: start;&quot;&gt;&lt;/span&gt;" style="rounded=1;whiteSpace=wrap;html=1;" vertex="1" parent="QqwJ9RMor9vU-qUxJGw9-1">
          <mxGeometry x="620" y="555" width="77.5" height="40" as="geometry" />
        </mxCell>
        <mxCell id="QqwJ9RMor9vU-qUxJGw9-22" style="edgeStyle=orthogonalEdgeStyle;rounded=0;orthogonalLoop=1;jettySize=auto;html=1;" edge="1" parent="QqwJ9RMor9vU-qUxJGw9-1" source="QqwJ9RMor9vU-qUxJGw9-16" target="QqwJ9RMor9vU-qUxJGw9-21">
          <mxGeometry relative="1" as="geometry">
            <Array as="points" />
            <mxPoint x="560" y="660" as="targetPoint" />
          </mxGeometry>
        </mxCell>
        <mxCell id="QqwJ9RMor9vU-qUxJGw9-23" value="ไม่" style="edgeLabel;html=1;align=center;verticalAlign=middle;resizable=0;points=[];" vertex="1" connectable="0" parent="QqwJ9RMor9vU-qUxJGw9-22">
          <mxGeometry x="-0.7968" y="2" relative="1" as="geometry">
            <mxPoint as="offset" />
          </mxGeometry>
        </mxCell>
        <mxCell id="QqwJ9RMor9vU-qUxJGw9-24" value="สร้างข้อมูล ActivityLog&lt;span style=&quot;font-size: medium; text-align: start;&quot;&gt;&lt;/span&gt;" style="rounded=1;whiteSpace=wrap;html=1;" vertex="1" parent="QqwJ9RMor9vU-qUxJGw9-1">
          <mxGeometry x="620" y="620" width="77.5" height="40" as="geometry" />
        </mxCell>
        <mxCell id="QqwJ9RMor9vU-qUxJGw9-25" value="" style="edgeStyle=orthogonalEdgeStyle;rounded=0;orthogonalLoop=1;jettySize=auto;html=1;" edge="1" parent="QqwJ9RMor9vU-qUxJGw9-1" source="QqwJ9RMor9vU-qUxJGw9-21" target="QqwJ9RMor9vU-qUxJGw9-24">
          <mxGeometry relative="1" as="geometry" />
        </mxCell>
        <mxCell id="QqwJ9RMor9vU-qUxJGw9-26" style="edgeStyle=orthogonalEdgeStyle;rounded=0;orthogonalLoop=1;jettySize=auto;html=1;" edge="1" parent="QqwJ9RMor9vU-qUxJGw9-1" source="QqwJ9RMor9vU-qUxJGw9-27" target="QqwJ9RMor9vU-qUxJGw9-19">
          <mxGeometry relative="1" as="geometry" />
        </mxCell>
        <mxCell id="QqwJ9RMor9vU-qUxJGw9-27" value="บันทึกข้อมูล&lt;span style=&quot;font-size: medium; text-align: start;&quot;&gt;&lt;/span&gt;" style="rounded=1;whiteSpace=wrap;html=1;" vertex="1" parent="QqwJ9RMor9vU-qUxJGw9-1">
          <mxGeometry x="620" y="690" width="77.5" height="40" as="geometry" />
        </mxCell>
        <mxCell id="QqwJ9RMor9vU-qUxJGw9-28" value="" style="edgeStyle=orthogonalEdgeStyle;rounded=0;orthogonalLoop=1;jettySize=auto;html=1;" edge="1" parent="QqwJ9RMor9vU-qUxJGw9-1" source="QqwJ9RMor9vU-qUxJGw9-24" target="QqwJ9RMor9vU-qUxJGw9-27">
          <mxGeometry relative="1" as="geometry" />
        </mxCell>
        <mxCell id="QqwJ9RMor9vU-qUxJGw9-29" style="edgeStyle=orthogonalEdgeStyle;rounded=0;orthogonalLoop=1;jettySize=auto;html=1;entryX=0;entryY=0.5;entryDx=0;entryDy=0;" edge="1" parent="QqwJ9RMor9vU-qUxJGw9-1" source="QqwJ9RMor9vU-qUxJGw9-53" target="QqwJ9RMor9vU-qUxJGw9-15">
          <mxGeometry relative="1" as="geometry">
            <mxPoint x="106.25" y="323" as="sourcePoint" />
            <Array as="points">
              <mxPoint x="90" y="323" />
              <mxPoint x="90" y="680" />
              <mxPoint x="138" y="680" />
            </Array>
          </mxGeometry>
        </mxCell>
        <mxCell id="QqwJ9RMor9vU-qUxJGw9-30" value="มีใน&lt;br&gt;ระบบ &lt;br&gt;?" style="rhombus;whiteSpace=wrap;html=1;" vertex="1" parent="QqwJ9RMor9vU-qUxJGw9-1">
          <mxGeometry x="323.94999999999993" y="228" width="75" height="70" as="geometry" />
        </mxCell>
        <mxCell id="QqwJ9RMor9vU-qUxJGw9-31" value="status&lt;br style=&quot;border-color: var(--border-color);&quot;&gt;= 1 ?" style="rhombus;whiteSpace=wrap;html=1;" vertex="1" parent="QqwJ9RMor9vU-qUxJGw9-1">
          <mxGeometry x="331.44999999999993" y="348" width="60" height="60" as="geometry" />
        </mxCell>
        <mxCell id="QqwJ9RMor9vU-qUxJGw9-32" value="" style="edgeStyle=orthogonalEdgeStyle;rounded=0;orthogonalLoop=1;jettySize=auto;html=1;" edge="1" parent="QqwJ9RMor9vU-qUxJGw9-1" source="QqwJ9RMor9vU-qUxJGw9-30" target="QqwJ9RMor9vU-qUxJGw9-31">
          <mxGeometry relative="1" as="geometry" />
        </mxCell>
        <mxCell id="QqwJ9RMor9vU-qUxJGw9-33" value="ใช่" style="edgeLabel;html=1;align=center;verticalAlign=middle;resizable=0;points=[];" vertex="1" connectable="0" parent="QqwJ9RMor9vU-qUxJGw9-32">
          <mxGeometry x="-0.3254" y="2" relative="1" as="geometry">
            <mxPoint x="-2" as="offset" />
          </mxGeometry>
        </mxCell>
        <mxCell id="QqwJ9RMor9vU-qUxJGw9-34" value="Locked&lt;br style=&quot;border-color: var(--border-color);&quot;&gt;= 1 ?&amp;nbsp;" style="rhombus;whiteSpace=wrap;html=1;" vertex="1" parent="QqwJ9RMor9vU-qUxJGw9-1">
          <mxGeometry x="331.44999999999993" y="478" width="60" height="60" as="geometry" />
        </mxCell>
        <mxCell id="QqwJ9RMor9vU-qUxJGw9-35" value="" style="edgeStyle=orthogonalEdgeStyle;rounded=0;orthogonalLoop=1;jettySize=auto;html=1;" edge="1" parent="QqwJ9RMor9vU-qUxJGw9-1" source="QqwJ9RMor9vU-qUxJGw9-31" target="QqwJ9RMor9vU-qUxJGw9-34">
          <mxGeometry relative="1" as="geometry" />
        </mxCell>
        <mxCell id="QqwJ9RMor9vU-qUxJGw9-36" value="ไม่" style="edgeLabel;html=1;align=center;verticalAlign=middle;resizable=0;points=[];" vertex="1" connectable="0" parent="QqwJ9RMor9vU-qUxJGw9-35">
          <mxGeometry x="-0.3745" relative="1" as="geometry">
            <mxPoint as="offset" />
          </mxGeometry>
        </mxCell>
        <mxCell id="QqwJ9RMor9vU-qUxJGw9-37" style="edgeStyle=orthogonalEdgeStyle;rounded=0;orthogonalLoop=1;jettySize=auto;html=1;" edge="1" parent="QqwJ9RMor9vU-qUxJGw9-1" source="QqwJ9RMor9vU-qUxJGw9-30" target="QqwJ9RMor9vU-qUxJGw9-45">
          <mxGeometry relative="1" as="geometry">
            <mxPoint x="257.6" y="263" as="targetPoint" />
          </mxGeometry>
        </mxCell>
        <mxCell id="QqwJ9RMor9vU-qUxJGw9-38" value="ไม่" style="edgeLabel;html=1;align=center;verticalAlign=middle;resizable=0;points=[];" vertex="1" connectable="0" parent="QqwJ9RMor9vU-qUxJGw9-37">
          <mxGeometry x="-0.6573" y="2" relative="1" as="geometry">
            <mxPoint as="offset" />
          </mxGeometry>
        </mxCell>
        <mxCell id="QqwJ9RMor9vU-qUxJGw9-39" style="edgeStyle=orthogonalEdgeStyle;rounded=0;orthogonalLoop=1;jettySize=auto;html=1;entryX=0.5;entryY=0;entryDx=0;entryDy=0;" edge="1" parent="QqwJ9RMor9vU-qUxJGw9-1" source="QqwJ9RMor9vU-qUxJGw9-40" target="QqwJ9RMor9vU-qUxJGw9-15">
          <mxGeometry relative="1" as="geometry" />
        </mxCell>
        <mxCell id="QqwJ9RMor9vU-qUxJGw9-40" value="rerturn Error Code&amp;nbsp;011&lt;span style=&quot;font-size: medium; text-align: start;&quot;&gt;&lt;/span&gt;" style="rounded=1;whiteSpace=wrap;html=1;" vertex="1" parent="QqwJ9RMor9vU-qUxJGw9-1">
          <mxGeometry x="207.5" y="600" width="77.5" height="40" as="geometry" />
        </mxCell>
        <mxCell id="QqwJ9RMor9vU-qUxJGw9-41" value="ตรวจสอบว่า CountryCode &lt;br&gt;ซ้ำในฐานข้อมูลไหม" style="rounded=1;whiteSpace=wrap;html=1;" vertex="1" parent="QqwJ9RMor9vU-qUxJGw9-1">
          <mxGeometry x="423.1" y="477" width="123.65" height="62" as="geometry" />
        </mxCell>
        <mxCell id="QqwJ9RMor9vU-qUxJGw9-42" value="" style="edgeStyle=orthogonalEdgeStyle;rounded=0;orthogonalLoop=1;jettySize=auto;html=1;" edge="1" parent="QqwJ9RMor9vU-qUxJGw9-1" source="QqwJ9RMor9vU-qUxJGw9-34" target="QqwJ9RMor9vU-qUxJGw9-41">
          <mxGeometry relative="1" as="geometry" />
        </mxCell>
        <mxCell id="QqwJ9RMor9vU-qUxJGw9-43" value="ไม่" style="edgeLabel;html=1;align=center;verticalAlign=middle;resizable=0;points=[];" vertex="1" connectable="0" parent="QqwJ9RMor9vU-qUxJGw9-42">
          <mxGeometry x="0.1426" y="-1" relative="1" as="geometry">
            <mxPoint as="offset" />
          </mxGeometry>
        </mxCell>
        <mxCell id="QqwJ9RMor9vU-qUxJGw9-44" value="" style="edgeStyle=orthogonalEdgeStyle;rounded=0;orthogonalLoop=1;jettySize=auto;html=1;" edge="1" parent="QqwJ9RMor9vU-qUxJGw9-1" source="QqwJ9RMor9vU-qUxJGw9-41" target="QqwJ9RMor9vU-qUxJGw9-16">
          <mxGeometry relative="1" as="geometry">
            <Array as="points">
              <mxPoint x="560" y="510" />
            </Array>
          </mxGeometry>
        </mxCell>
        <mxCell id="QqwJ9RMor9vU-qUxJGw9-45" value="สร้างข้อมูล ActivityLog&lt;span style=&quot;font-size: medium; text-align: start;&quot;&gt;&lt;/span&gt;" style="rounded=1;whiteSpace=wrap;html=1;" vertex="1" parent="QqwJ9RMor9vU-qUxJGw9-1">
          <mxGeometry x="207.5" y="243" width="77.5" height="40" as="geometry" />
        </mxCell>
        <mxCell id="QqwJ9RMor9vU-qUxJGw9-46" style="edgeStyle=orthogonalEdgeStyle;rounded=0;orthogonalLoop=1;jettySize=auto;html=1;entryX=0;entryY=0;entryDx=0;entryDy=0;" edge="1" parent="QqwJ9RMor9vU-qUxJGw9-1" source="QqwJ9RMor9vU-qUxJGw9-47" target="QqwJ9RMor9vU-qUxJGw9-15">
          <mxGeometry relative="1" as="geometry">
            <Array as="points">
              <mxPoint x="100" y="440" />
              <mxPoint x="100" y="664" />
              <mxPoint x="142" y="664" />
            </Array>
          </mxGeometry>
        </mxCell>
        <mxCell id="QqwJ9RMor9vU-qUxJGw9-47" value="rerturn Error Code&amp;nbsp;004&lt;span style=&quot;font-size: medium; text-align: start;&quot;&gt;&lt;/span&gt;" style="rounded=1;whiteSpace=wrap;html=1;" vertex="1" parent="QqwJ9RMor9vU-qUxJGw9-1">
          <mxGeometry x="106.25" y="420" width="77.5" height="40" as="geometry" />
        </mxCell>
        <mxCell id="QqwJ9RMor9vU-qUxJGw9-48" value="สร้างข้อมูล ActivityLog&lt;span style=&quot;font-size: medium; text-align: start;&quot;&gt;&lt;/span&gt;" style="rounded=1;whiteSpace=wrap;html=1;" vertex="1" parent="QqwJ9RMor9vU-qUxJGw9-1">
          <mxGeometry x="207.5" y="358" width="77.5" height="40" as="geometry" />
        </mxCell>
        <mxCell id="QqwJ9RMor9vU-qUxJGw9-49" value="" style="edgeStyle=orthogonalEdgeStyle;rounded=0;orthogonalLoop=1;jettySize=auto;html=1;" edge="1" parent="QqwJ9RMor9vU-qUxJGw9-1" source="QqwJ9RMor9vU-qUxJGw9-31" target="QqwJ9RMor9vU-qUxJGw9-48">
          <mxGeometry relative="1" as="geometry" />
        </mxCell>
        <mxCell id="QqwJ9RMor9vU-qUxJGw9-50" value="ใช่" style="edgeLabel;html=1;align=center;verticalAlign=middle;resizable=0;points=[];" vertex="1" connectable="0" parent="QqwJ9RMor9vU-qUxJGw9-49">
          <mxGeometry x="-0.1729" relative="1" as="geometry">
            <mxPoint as="offset" />
          </mxGeometry>
        </mxCell>
        <mxCell id="QqwJ9RMor9vU-qUxJGw9-51" value="บันทึกข้อมูล&lt;span style=&quot;font-size: medium; text-align: start;&quot;&gt;&lt;/span&gt;" style="rounded=1;whiteSpace=wrap;html=1;" vertex="1" parent="QqwJ9RMor9vU-qUxJGw9-1">
          <mxGeometry x="110" y="243" width="77.5" height="40" as="geometry" />
        </mxCell>
        <mxCell id="QqwJ9RMor9vU-qUxJGw9-52" value="" style="edgeStyle=orthogonalEdgeStyle;rounded=0;orthogonalLoop=1;jettySize=auto;html=1;" edge="1" parent="QqwJ9RMor9vU-qUxJGw9-1" source="QqwJ9RMor9vU-qUxJGw9-45" target="QqwJ9RMor9vU-qUxJGw9-51">
          <mxGeometry relative="1" as="geometry" />
        </mxCell>
        <mxCell id="QqwJ9RMor9vU-qUxJGw9-53" value="rerturn Error Code&amp;nbsp;001&lt;span style=&quot;font-size: medium; text-align: start;&quot;&gt;&lt;/span&gt;" style="rounded=1;whiteSpace=wrap;html=1;" vertex="1" parent="QqwJ9RMor9vU-qUxJGw9-1">
          <mxGeometry x="110" y="308" width="77.5" height="40" as="geometry" />
        </mxCell>
        <mxCell id="QqwJ9RMor9vU-qUxJGw9-54" value="" style="edgeStyle=orthogonalEdgeStyle;rounded=0;orthogonalLoop=1;jettySize=auto;html=1;" edge="1" parent="QqwJ9RMor9vU-qUxJGw9-1" source="QqwJ9RMor9vU-qUxJGw9-51" target="QqwJ9RMor9vU-qUxJGw9-53">
          <mxGeometry relative="1" as="geometry" />
        </mxCell>
        <mxCell id="QqwJ9RMor9vU-qUxJGw9-55" value="" style="edgeStyle=orthogonalEdgeStyle;rounded=0;orthogonalLoop=1;jettySize=auto;html=1;" edge="1" parent="QqwJ9RMor9vU-qUxJGw9-1" source="QqwJ9RMor9vU-qUxJGw9-56" target="QqwJ9RMor9vU-qUxJGw9-47">
          <mxGeometry relative="1" as="geometry" />
        </mxCell>
        <mxCell id="QqwJ9RMor9vU-qUxJGw9-56" value="บันทึกข้อมูล&lt;span style=&quot;font-size: medium; text-align: start;&quot;&gt;&lt;/span&gt;" style="rounded=1;whiteSpace=wrap;html=1;" vertex="1" parent="QqwJ9RMor9vU-qUxJGw9-1">
          <mxGeometry x="207.5" y="420" width="77.5" height="40" as="geometry" />
        </mxCell>
        <mxCell id="QqwJ9RMor9vU-qUxJGw9-57" value="" style="edgeStyle=orthogonalEdgeStyle;rounded=0;orthogonalLoop=1;jettySize=auto;html=1;" edge="1" parent="QqwJ9RMor9vU-qUxJGw9-1" source="QqwJ9RMor9vU-qUxJGw9-48" target="QqwJ9RMor9vU-qUxJGw9-56">
          <mxGeometry relative="1" as="geometry" />
        </mxCell>
        <mxCell id="QqwJ9RMor9vU-qUxJGw9-58" value="สร้างข้อมูล ActivityLog&lt;span style=&quot;font-size: medium; text-align: start;&quot;&gt;&lt;/span&gt;" style="rounded=1;whiteSpace=wrap;html=1;" vertex="1" parent="QqwJ9RMor9vU-qUxJGw9-1">
          <mxGeometry x="207.5" y="488" width="77.5" height="40" as="geometry" />
        </mxCell>
        <mxCell id="QqwJ9RMor9vU-qUxJGw9-59" value="" style="edgeStyle=orthogonalEdgeStyle;rounded=0;orthogonalLoop=1;jettySize=auto;html=1;" edge="1" parent="QqwJ9RMor9vU-qUxJGw9-1" source="QqwJ9RMor9vU-qUxJGw9-34" target="QqwJ9RMor9vU-qUxJGw9-58">
          <mxGeometry relative="1" as="geometry" />
        </mxCell>
        <mxCell id="QqwJ9RMor9vU-qUxJGw9-60" value="ใช่" style="edgeLabel;html=1;align=center;verticalAlign=middle;resizable=0;points=[];" vertex="1" connectable="0" parent="QqwJ9RMor9vU-qUxJGw9-59">
          <mxGeometry x="-0.1659" y="-1" relative="1" as="geometry">
            <mxPoint as="offset" />
          </mxGeometry>
        </mxCell>
        <mxCell id="QqwJ9RMor9vU-qUxJGw9-61" value="" style="edgeStyle=orthogonalEdgeStyle;rounded=0;orthogonalLoop=1;jettySize=auto;html=1;" edge="1" parent="QqwJ9RMor9vU-qUxJGw9-1" source="QqwJ9RMor9vU-qUxJGw9-62" target="QqwJ9RMor9vU-qUxJGw9-40">
          <mxGeometry relative="1" as="geometry" />
        </mxCell>
        <mxCell id="QqwJ9RMor9vU-qUxJGw9-62" value="บันทึกข้อมูล&lt;span style=&quot;font-size: medium; text-align: start;&quot;&gt;&lt;/span&gt;" style="rounded=1;whiteSpace=wrap;html=1;" vertex="1" parent="QqwJ9RMor9vU-qUxJGw9-1">
          <mxGeometry x="207.5" y="545" width="77.5" height="40" as="geometry" />
        </mxCell>
        <mxCell id="QqwJ9RMor9vU-qUxJGw9-63" value="สร้างข้อมูล ActivityLog&lt;span style=&quot;font-size: medium; text-align: start;&quot;&gt;&lt;/span&gt;" style="rounded=1;whiteSpace=wrap;html=1;" vertex="1" parent="QqwJ9RMor9vU-qUxJGw9-1">
          <mxGeometry x="423.1" y="555" width="77.5" height="40" as="geometry" />
        </mxCell>
        <mxCell id="QqwJ9RMor9vU-qUxJGw9-64" value="" style="edgeStyle=orthogonalEdgeStyle;rounded=0;orthogonalLoop=1;jettySize=auto;html=1;" edge="1" parent="QqwJ9RMor9vU-qUxJGw9-1" source="QqwJ9RMor9vU-qUxJGw9-58" target="QqwJ9RMor9vU-qUxJGw9-62">
          <mxGeometry relative="1" as="geometry" />
        </mxCell>
        <mxCell id="QqwJ9RMor9vU-qUxJGw9-65" style="edgeStyle=orthogonalEdgeStyle;rounded=0;orthogonalLoop=1;jettySize=auto;html=1;entryX=0.5;entryY=0;entryDx=0;entryDy=0;" edge="1" parent="QqwJ9RMor9vU-qUxJGw9-1" source="QqwJ9RMor9vU-qUxJGw9-66" target="QqwJ9RMor9vU-qUxJGw9-17">
          <mxGeometry relative="1" as="geometry" />
        </mxCell>
        <mxCell id="QqwJ9RMor9vU-qUxJGw9-66" value="บันทึกข้อมูล&lt;span style=&quot;font-size: medium; text-align: start;&quot;&gt;&lt;/span&gt;" style="rounded=1;whiteSpace=wrap;html=1;" vertex="1" parent="QqwJ9RMor9vU-qUxJGw9-1">
          <mxGeometry x="321.45000000000005" y="555" width="77.5" height="40" as="geometry" />
        </mxCell>
        <mxCell id="QqwJ9RMor9vU-qUxJGw9-67" value="" style="edgeStyle=orthogonalEdgeStyle;rounded=0;orthogonalLoop=1;jettySize=auto;html=1;" edge="1" parent="QqwJ9RMor9vU-qUxJGw9-1" source="QqwJ9RMor9vU-qUxJGw9-16" target="QqwJ9RMor9vU-qUxJGw9-63">
          <mxGeometry relative="1" as="geometry" />
        </mxCell>
        <mxCell id="QqwJ9RMor9vU-qUxJGw9-68" value="" style="edgeStyle=orthogonalEdgeStyle;rounded=0;orthogonalLoop=1;jettySize=auto;html=1;" edge="1" parent="QqwJ9RMor9vU-qUxJGw9-1" source="QqwJ9RMor9vU-qUxJGw9-63" target="QqwJ9RMor9vU-qUxJGw9-66">
          <mxGeometry relative="1" as="geometry" />
        </mxCell>
      </root>
    </mxGraphModel>
  </diagram>
  <diagram id="Y_EnUfgOqJcMyEvGNZPl" name="หน้า-4">
    <mxGraphModel dx="1914" dy="1011" grid="1" gridSize="10" guides="1" tooltips="1" connect="1" arrows="1" fold="1" page="1" pageScale="1" pageWidth="827" pageHeight="1169" math="0" shadow="0">
      <root>
        <mxCell id="0" />
        <mxCell id="1" parent="0" />
        <mxCell id="E_i6VrLePPT64hlB4S9--1" value="" style="group" vertex="1" connectable="0" parent="1">
          <mxGeometry x="35" y="120" width="757.5" height="900" as="geometry" />
        </mxCell>
        <mxCell id="E_i6VrLePPT64hlB4S9--2" value="เริ่ม" style="ellipse;whiteSpace=wrap;html=1;" vertex="1" parent="E_i6VrLePPT64hlB4S9--1">
          <mxGeometry x="30" width="80" height="40" as="geometry" />
        </mxCell>
        <mxCell id="E_i6VrLePPT64hlB4S9--3" value="ตรวจสอบสิทธิ์การใช้งาน" style="rounded=1;whiteSpace=wrap;html=1;" vertex="1" parent="E_i6VrLePPT64hlB4S9--1">
          <mxGeometry y="80" width="140" height="30" as="geometry" />
        </mxCell>
        <mxCell id="E_i6VrLePPT64hlB4S9--4" value="" style="edgeStyle=orthogonalEdgeStyle;rounded=0;orthogonalLoop=1;jettySize=auto;html=1;" edge="1" parent="E_i6VrLePPT64hlB4S9--1" source="E_i6VrLePPT64hlB4S9--2" target="E_i6VrLePPT64hlB4S9--3">
          <mxGeometry relative="1" as="geometry" />
        </mxCell>
        <mxCell id="E_i6VrLePPT64hlB4S9--5" value="มี ?" style="rhombus;whiteSpace=wrap;html=1;" vertex="1" parent="E_i6VrLePPT64hlB4S9--1">
          <mxGeometry x="40" y="140" width="60" height="60" as="geometry" />
        </mxCell>
        <mxCell id="E_i6VrLePPT64hlB4S9--6" value="" style="edgeStyle=orthogonalEdgeStyle;rounded=0;orthogonalLoop=1;jettySize=auto;html=1;" edge="1" parent="E_i6VrLePPT64hlB4S9--1" source="E_i6VrLePPT64hlB4S9--3" target="E_i6VrLePPT64hlB4S9--5">
          <mxGeometry relative="1" as="geometry" />
        </mxCell>
        <mxCell id="E_i6VrLePPT64hlB4S9--7" value="สิ้นสุด" style="ellipse;whiteSpace=wrap;html=1;" vertex="1" parent="E_i6VrLePPT64hlB4S9--1">
          <mxGeometry x="225" y="690" width="80" height="40" as="geometry" />
        </mxCell>
        <mxCell id="E_i6VrLePPT64hlB4S9--8" style="edgeStyle=orthogonalEdgeStyle;rounded=0;orthogonalLoop=1;jettySize=auto;html=1;entryX=0;entryY=0.5;entryDx=0;entryDy=0;" edge="1" parent="E_i6VrLePPT64hlB4S9--1" source="E_i6VrLePPT64hlB4S9--5" target="E_i6VrLePPT64hlB4S9--7">
          <mxGeometry relative="1" as="geometry">
            <Array as="points">
              <mxPoint x="70" y="710" />
            </Array>
          </mxGeometry>
        </mxCell>
        <mxCell id="E_i6VrLePPT64hlB4S9--9" value="ไม่" style="edgeLabel;html=1;align=center;verticalAlign=middle;resizable=0;points=[];" vertex="1" connectable="0" parent="E_i6VrLePPT64hlB4S9--8">
          <mxGeometry x="-0.8925" y="1" relative="1" as="geometry">
            <mxPoint as="offset" />
          </mxGeometry>
        </mxCell>
        <mxCell id="E_i6VrLePPT64hlB4S9--10" value="ตรวจสอบ Account &lt;br&gt;สถานะการใช้งาน" style="rounded=1;whiteSpace=wrap;html=1;" vertex="1" parent="E_i6VrLePPT64hlB4S9--1">
          <mxGeometry x="276" y="150" width="170" height="40" as="geometry" />
        </mxCell>
        <mxCell id="E_i6VrLePPT64hlB4S9--11" value="" style="edgeStyle=orthogonalEdgeStyle;rounded=0;orthogonalLoop=1;jettySize=auto;html=1;" edge="1" parent="E_i6VrLePPT64hlB4S9--1" source="E_i6VrLePPT64hlB4S9--5" target="E_i6VrLePPT64hlB4S9--10">
          <mxGeometry relative="1" as="geometry">
            <Array as="points">
              <mxPoint x="180" y="170" />
              <mxPoint x="180" y="170" />
            </Array>
          </mxGeometry>
        </mxCell>
        <mxCell id="E_i6VrLePPT64hlB4S9--12" value="ใช่" style="edgeLabel;html=1;align=center;verticalAlign=middle;resizable=0;points=[];" vertex="1" connectable="0" parent="E_i6VrLePPT64hlB4S9--11">
          <mxGeometry x="-0.7797" y="-1" relative="1" as="geometry">
            <mxPoint as="offset" />
          </mxGeometry>
        </mxCell>
        <mxCell id="E_i6VrLePPT64hlB4S9--13" value="" style="edgeStyle=orthogonalEdgeStyle;rounded=0;orthogonalLoop=1;jettySize=auto;html=1;" edge="1" parent="E_i6VrLePPT64hlB4S9--1" source="E_i6VrLePPT64hlB4S9--10" target="E_i6VrLePPT64hlB4S9--20">
          <mxGeometry relative="1" as="geometry" />
        </mxCell>
        <mxCell id="E_i6VrLePPT64hlB4S9--14" style="edgeStyle=orthogonalEdgeStyle;rounded=0;orthogonalLoop=1;jettySize=auto;html=1;entryX=0;entryY=0;entryDx=0;entryDy=0;" edge="1" parent="E_i6VrLePPT64hlB4S9--1" target="E_i6VrLePPT64hlB4S9--7">
          <mxGeometry relative="1" as="geometry">
            <Array as="points">
              <mxPoint x="208" y="690" />
              <mxPoint x="237" y="690" />
            </Array>
            <mxPoint x="160" y="680" as="sourcePoint" />
          </mxGeometry>
        </mxCell>
        <mxCell id="E_i6VrLePPT64hlB4S9--15" value="" style="ellipse;whiteSpace=wrap;html=1;aspect=fixed;" vertex="1" parent="E_i6VrLePPT64hlB4S9--1">
          <mxGeometry x="137.5" y="660" width="30" height="30" as="geometry" />
        </mxCell>
        <mxCell id="E_i6VrLePPT64hlB4S9--16" style="edgeStyle=orthogonalEdgeStyle;rounded=0;orthogonalLoop=1;jettySize=auto;html=1;" edge="1" parent="E_i6VrLePPT64hlB4S9--1" source="E_i6VrLePPT64hlB4S9--17" target="E_i6VrLePPT64hlB4S9--7">
          <mxGeometry relative="1" as="geometry" />
        </mxCell>
        <mxCell id="E_i6VrLePPT64hlB4S9--17" value="" style="ellipse;whiteSpace=wrap;html=1;aspect=fixed;" vertex="1" parent="E_i6VrLePPT64hlB4S9--1">
          <mxGeometry x="346" y="695" width="30" height="30" as="geometry" />
        </mxCell>
        <mxCell id="E_i6VrLePPT64hlB4S9--18" style="edgeStyle=orthogonalEdgeStyle;rounded=0;orthogonalLoop=1;jettySize=auto;html=1;" edge="1" parent="E_i6VrLePPT64hlB4S9--1" source="E_i6VrLePPT64hlB4S9--51" target="E_i6VrLePPT64hlB4S9--17">
          <mxGeometry relative="1" as="geometry" />
        </mxCell>
        <mxCell id="E_i6VrLePPT64hlB4S9--19" style="edgeStyle=orthogonalEdgeStyle;rounded=0;orthogonalLoop=1;jettySize=auto;html=1;entryX=0;entryY=0.5;entryDx=0;entryDy=0;" edge="1" parent="E_i6VrLePPT64hlB4S9--1" source="E_i6VrLePPT64hlB4S9--39" target="E_i6VrLePPT64hlB4S9--15">
          <mxGeometry relative="1" as="geometry">
            <mxPoint x="106.25" y="323" as="sourcePoint" />
            <Array as="points">
              <mxPoint x="90" y="323" />
              <mxPoint x="90" y="680" />
              <mxPoint x="138" y="680" />
            </Array>
          </mxGeometry>
        </mxCell>
        <mxCell id="E_i6VrLePPT64hlB4S9--20" value="มีใน&lt;br&gt;ระบบ &lt;br&gt;?" style="rhombus;whiteSpace=wrap;html=1;" vertex="1" parent="E_i6VrLePPT64hlB4S9--1">
          <mxGeometry x="323.9499999999998" y="228" width="75" height="70" as="geometry" />
        </mxCell>
        <mxCell id="E_i6VrLePPT64hlB4S9--21" value="status&lt;br style=&quot;border-color: var(--border-color);&quot;&gt;= 1 ?" style="rhombus;whiteSpace=wrap;html=1;" vertex="1" parent="E_i6VrLePPT64hlB4S9--1">
          <mxGeometry x="331.4499999999998" y="348" width="60" height="60" as="geometry" />
        </mxCell>
        <mxCell id="E_i6VrLePPT64hlB4S9--22" value="" style="edgeStyle=orthogonalEdgeStyle;rounded=0;orthogonalLoop=1;jettySize=auto;html=1;" edge="1" parent="E_i6VrLePPT64hlB4S9--1" source="E_i6VrLePPT64hlB4S9--20" target="E_i6VrLePPT64hlB4S9--21">
          <mxGeometry relative="1" as="geometry" />
        </mxCell>
        <mxCell id="E_i6VrLePPT64hlB4S9--23" value="ใช่" style="edgeLabel;html=1;align=center;verticalAlign=middle;resizable=0;points=[];" vertex="1" connectable="0" parent="E_i6VrLePPT64hlB4S9--22">
          <mxGeometry x="-0.3254" y="2" relative="1" as="geometry">
            <mxPoint x="-2" as="offset" />
          </mxGeometry>
        </mxCell>
        <mxCell id="E_i6VrLePPT64hlB4S9--24" value="Locked&lt;br style=&quot;border-color: var(--border-color);&quot;&gt;= 1 ?&amp;nbsp;" style="rhombus;whiteSpace=wrap;html=1;" vertex="1" parent="E_i6VrLePPT64hlB4S9--1">
          <mxGeometry x="331.4499999999998" y="478" width="60" height="60" as="geometry" />
        </mxCell>
        <mxCell id="E_i6VrLePPT64hlB4S9--25" value="" style="edgeStyle=orthogonalEdgeStyle;rounded=0;orthogonalLoop=1;jettySize=auto;html=1;" edge="1" parent="E_i6VrLePPT64hlB4S9--1" source="E_i6VrLePPT64hlB4S9--21" target="E_i6VrLePPT64hlB4S9--24">
          <mxGeometry relative="1" as="geometry" />
        </mxCell>
        <mxCell id="E_i6VrLePPT64hlB4S9--26" value="ไม่" style="edgeLabel;html=1;align=center;verticalAlign=middle;resizable=0;points=[];" vertex="1" connectable="0" parent="E_i6VrLePPT64hlB4S9--25">
          <mxGeometry x="-0.3745" relative="1" as="geometry">
            <mxPoint as="offset" />
          </mxGeometry>
        </mxCell>
        <mxCell id="E_i6VrLePPT64hlB4S9--27" style="edgeStyle=orthogonalEdgeStyle;rounded=0;orthogonalLoop=1;jettySize=auto;html=1;" edge="1" parent="E_i6VrLePPT64hlB4S9--1" source="E_i6VrLePPT64hlB4S9--20" target="E_i6VrLePPT64hlB4S9--31">
          <mxGeometry relative="1" as="geometry">
            <mxPoint x="257.5999999999999" y="263" as="targetPoint" />
          </mxGeometry>
        </mxCell>
        <mxCell id="E_i6VrLePPT64hlB4S9--28" value="ไม่" style="edgeLabel;html=1;align=center;verticalAlign=middle;resizable=0;points=[];" vertex="1" connectable="0" parent="E_i6VrLePPT64hlB4S9--27">
          <mxGeometry x="-0.6573" y="2" relative="1" as="geometry">
            <mxPoint as="offset" />
          </mxGeometry>
        </mxCell>
        <mxCell id="E_i6VrLePPT64hlB4S9--29" style="edgeStyle=orthogonalEdgeStyle;rounded=0;orthogonalLoop=1;jettySize=auto;html=1;entryX=0.5;entryY=0;entryDx=0;entryDy=0;" edge="1" parent="E_i6VrLePPT64hlB4S9--1" source="E_i6VrLePPT64hlB4S9--30" target="E_i6VrLePPT64hlB4S9--15">
          <mxGeometry relative="1" as="geometry" />
        </mxCell>
        <mxCell id="E_i6VrLePPT64hlB4S9--30" value="rerturn Error Code&amp;nbsp;011&lt;span style=&quot;font-size: medium; text-align: start;&quot;&gt;&lt;/span&gt;" style="rounded=1;whiteSpace=wrap;html=1;" vertex="1" parent="E_i6VrLePPT64hlB4S9--1">
          <mxGeometry x="207.5" y="600" width="77.5" height="40" as="geometry" />
        </mxCell>
        <mxCell id="E_i6VrLePPT64hlB4S9--31" value="สร้างข้อมูล ActivityLog&lt;span style=&quot;font-size: medium; text-align: start;&quot;&gt;&lt;/span&gt;" style="rounded=1;whiteSpace=wrap;html=1;" vertex="1" parent="E_i6VrLePPT64hlB4S9--1">
          <mxGeometry x="207.5" y="243" width="77.5" height="40" as="geometry" />
        </mxCell>
        <mxCell id="E_i6VrLePPT64hlB4S9--32" style="edgeStyle=orthogonalEdgeStyle;rounded=0;orthogonalLoop=1;jettySize=auto;html=1;entryX=0;entryY=0;entryDx=0;entryDy=0;" edge="1" parent="E_i6VrLePPT64hlB4S9--1" source="E_i6VrLePPT64hlB4S9--33" target="E_i6VrLePPT64hlB4S9--15">
          <mxGeometry relative="1" as="geometry">
            <Array as="points">
              <mxPoint x="100" y="440" />
              <mxPoint x="100" y="664" />
              <mxPoint x="142" y="664" />
            </Array>
          </mxGeometry>
        </mxCell>
        <mxCell id="E_i6VrLePPT64hlB4S9--33" value="rerturn Error Code&amp;nbsp;004&lt;span style=&quot;font-size: medium; text-align: start;&quot;&gt;&lt;/span&gt;" style="rounded=1;whiteSpace=wrap;html=1;" vertex="1" parent="E_i6VrLePPT64hlB4S9--1">
          <mxGeometry x="106.25" y="420" width="77.5" height="40" as="geometry" />
        </mxCell>
        <mxCell id="E_i6VrLePPT64hlB4S9--34" value="สร้างข้อมูล ActivityLog&lt;span style=&quot;font-size: medium; text-align: start;&quot;&gt;&lt;/span&gt;" style="rounded=1;whiteSpace=wrap;html=1;" vertex="1" parent="E_i6VrLePPT64hlB4S9--1">
          <mxGeometry x="207.5" y="358" width="77.5" height="40" as="geometry" />
        </mxCell>
        <mxCell id="E_i6VrLePPT64hlB4S9--35" value="" style="edgeStyle=orthogonalEdgeStyle;rounded=0;orthogonalLoop=1;jettySize=auto;html=1;" edge="1" parent="E_i6VrLePPT64hlB4S9--1" source="E_i6VrLePPT64hlB4S9--21" target="E_i6VrLePPT64hlB4S9--34">
          <mxGeometry relative="1" as="geometry" />
        </mxCell>
        <mxCell id="E_i6VrLePPT64hlB4S9--36" value="ใช่" style="edgeLabel;html=1;align=center;verticalAlign=middle;resizable=0;points=[];" vertex="1" connectable="0" parent="E_i6VrLePPT64hlB4S9--35">
          <mxGeometry x="-0.1729" relative="1" as="geometry">
            <mxPoint as="offset" />
          </mxGeometry>
        </mxCell>
        <mxCell id="E_i6VrLePPT64hlB4S9--37" value="บันทึกข้อมูล&lt;span style=&quot;font-size: medium; text-align: start;&quot;&gt;&lt;/span&gt;" style="rounded=1;whiteSpace=wrap;html=1;" vertex="1" parent="E_i6VrLePPT64hlB4S9--1">
          <mxGeometry x="110" y="243" width="77.5" height="40" as="geometry" />
        </mxCell>
        <mxCell id="E_i6VrLePPT64hlB4S9--38" value="" style="edgeStyle=orthogonalEdgeStyle;rounded=0;orthogonalLoop=1;jettySize=auto;html=1;" edge="1" parent="E_i6VrLePPT64hlB4S9--1" source="E_i6VrLePPT64hlB4S9--31" target="E_i6VrLePPT64hlB4S9--37">
          <mxGeometry relative="1" as="geometry" />
        </mxCell>
        <mxCell id="E_i6VrLePPT64hlB4S9--39" value="rerturn Error Code&amp;nbsp;001&lt;span style=&quot;font-size: medium; text-align: start;&quot;&gt;&lt;/span&gt;" style="rounded=1;whiteSpace=wrap;html=1;" vertex="1" parent="E_i6VrLePPT64hlB4S9--1">
          <mxGeometry x="110" y="308" width="77.5" height="40" as="geometry" />
        </mxCell>
        <mxCell id="E_i6VrLePPT64hlB4S9--40" value="" style="edgeStyle=orthogonalEdgeStyle;rounded=0;orthogonalLoop=1;jettySize=auto;html=1;" edge="1" parent="E_i6VrLePPT64hlB4S9--1" source="E_i6VrLePPT64hlB4S9--37" target="E_i6VrLePPT64hlB4S9--39">
          <mxGeometry relative="1" as="geometry" />
        </mxCell>
        <mxCell id="E_i6VrLePPT64hlB4S9--41" value="" style="edgeStyle=orthogonalEdgeStyle;rounded=0;orthogonalLoop=1;jettySize=auto;html=1;" edge="1" parent="E_i6VrLePPT64hlB4S9--1" source="E_i6VrLePPT64hlB4S9--42" target="E_i6VrLePPT64hlB4S9--33">
          <mxGeometry relative="1" as="geometry" />
        </mxCell>
        <mxCell id="E_i6VrLePPT64hlB4S9--42" value="บันทึกข้อมูล&lt;span style=&quot;font-size: medium; text-align: start;&quot;&gt;&lt;/span&gt;" style="rounded=1;whiteSpace=wrap;html=1;" vertex="1" parent="E_i6VrLePPT64hlB4S9--1">
          <mxGeometry x="207.5" y="420" width="77.5" height="40" as="geometry" />
        </mxCell>
        <mxCell id="E_i6VrLePPT64hlB4S9--43" value="" style="edgeStyle=orthogonalEdgeStyle;rounded=0;orthogonalLoop=1;jettySize=auto;html=1;" edge="1" parent="E_i6VrLePPT64hlB4S9--1" source="E_i6VrLePPT64hlB4S9--34" target="E_i6VrLePPT64hlB4S9--42">
          <mxGeometry relative="1" as="geometry" />
        </mxCell>
        <mxCell id="E_i6VrLePPT64hlB4S9--44" value="สร้างข้อมูล ActivityLog&lt;span style=&quot;font-size: medium; text-align: start;&quot;&gt;&lt;/span&gt;" style="rounded=1;whiteSpace=wrap;html=1;" vertex="1" parent="E_i6VrLePPT64hlB4S9--1">
          <mxGeometry x="207.5" y="488" width="77.5" height="40" as="geometry" />
        </mxCell>
        <mxCell id="E_i6VrLePPT64hlB4S9--45" value="" style="edgeStyle=orthogonalEdgeStyle;rounded=0;orthogonalLoop=1;jettySize=auto;html=1;" edge="1" parent="E_i6VrLePPT64hlB4S9--1" source="E_i6VrLePPT64hlB4S9--24" target="E_i6VrLePPT64hlB4S9--44">
          <mxGeometry relative="1" as="geometry" />
        </mxCell>
        <mxCell id="E_i6VrLePPT64hlB4S9--46" value="ใช่" style="edgeLabel;html=1;align=center;verticalAlign=middle;resizable=0;points=[];" vertex="1" connectable="0" parent="E_i6VrLePPT64hlB4S9--45">
          <mxGeometry x="-0.1659" y="-1" relative="1" as="geometry">
            <mxPoint as="offset" />
          </mxGeometry>
        </mxCell>
        <mxCell id="E_i6VrLePPT64hlB4S9--47" value="" style="edgeStyle=orthogonalEdgeStyle;rounded=0;orthogonalLoop=1;jettySize=auto;html=1;" edge="1" parent="E_i6VrLePPT64hlB4S9--1" source="E_i6VrLePPT64hlB4S9--48" target="E_i6VrLePPT64hlB4S9--30">
          <mxGeometry relative="1" as="geometry" />
        </mxCell>
        <mxCell id="E_i6VrLePPT64hlB4S9--48" value="บันทึกข้อมูล&lt;span style=&quot;font-size: medium; text-align: start;&quot;&gt;&lt;/span&gt;" style="rounded=1;whiteSpace=wrap;html=1;" vertex="1" parent="E_i6VrLePPT64hlB4S9--1">
          <mxGeometry x="207.5" y="545" width="77.5" height="40" as="geometry" />
        </mxCell>
        <mxCell id="E_i6VrLePPT64hlB4S9--49" value="" style="edgeStyle=orthogonalEdgeStyle;rounded=0;orthogonalLoop=1;jettySize=auto;html=1;" edge="1" parent="E_i6VrLePPT64hlB4S9--1" source="E_i6VrLePPT64hlB4S9--44" target="E_i6VrLePPT64hlB4S9--48">
          <mxGeometry relative="1" as="geometry" />
        </mxCell>
        <mxCell id="E_i6VrLePPT64hlB4S9--50" value="มี ?" style="rhombus;whiteSpace=wrap;html=1;" vertex="1" parent="E_i6VrLePPT64hlB4S9--1">
          <mxGeometry x="530" y="545" width="60" height="60" as="geometry" />
        </mxCell>
        <mxCell id="E_i6VrLePPT64hlB4S9--51" value="rerturn Error Code&amp;nbsp;016&lt;span style=&quot;font-size: medium; text-align: start;&quot;&gt;&lt;/span&gt;" style="rounded=1;whiteSpace=wrap;html=1;" vertex="1" parent="E_i6VrLePPT64hlB4S9--1">
          <mxGeometry x="400" y="590" width="77.5" height="40" as="geometry" />
        </mxCell>
        <mxCell id="E_i6VrLePPT64hlB4S9--52" value="" style="edgeStyle=orthogonalEdgeStyle;rounded=0;orthogonalLoop=1;jettySize=auto;html=1;" edge="1" parent="E_i6VrLePPT64hlB4S9--1" source="E_i6VrLePPT64hlB4S9--50" target="E_i6VrLePPT64hlB4S9--51">
          <mxGeometry relative="1" as="geometry" />
        </mxCell>
        <mxCell id="E_i6VrLePPT64hlB4S9--53" value="ไม่" style="edgeLabel;html=1;align=center;verticalAlign=middle;resizable=0;points=[];" vertex="1" connectable="0" parent="E_i6VrLePPT64hlB4S9--52">
          <mxGeometry x="-0.1637" relative="1" as="geometry">
            <mxPoint as="offset" />
          </mxGeometry>
        </mxCell>
        <mxCell id="E_i6VrLePPT64hlB4S9--54" value="ตรวจสอบว่า CountryCode &lt;br&gt;มีในฐานข้อมูลไหม" style="rounded=1;whiteSpace=wrap;html=1;" vertex="1" parent="E_i6VrLePPT64hlB4S9--1">
          <mxGeometry x="423.0999999999999" y="477" width="123.65" height="62" as="geometry" />
        </mxCell>
        <mxCell id="E_i6VrLePPT64hlB4S9--55" value="" style="edgeStyle=orthogonalEdgeStyle;rounded=0;orthogonalLoop=1;jettySize=auto;html=1;" edge="1" parent="E_i6VrLePPT64hlB4S9--1" source="E_i6VrLePPT64hlB4S9--24" target="E_i6VrLePPT64hlB4S9--54">
          <mxGeometry relative="1" as="geometry" />
        </mxCell>
        <mxCell id="E_i6VrLePPT64hlB4S9--56" value="ไม่" style="edgeLabel;html=1;align=center;verticalAlign=middle;resizable=0;points=[];" vertex="1" connectable="0" parent="E_i6VrLePPT64hlB4S9--55">
          <mxGeometry x="0.1426" y="-1" relative="1" as="geometry">
            <mxPoint as="offset" />
          </mxGeometry>
        </mxCell>
        <mxCell id="E_i6VrLePPT64hlB4S9--57" value="" style="edgeStyle=orthogonalEdgeStyle;rounded=0;orthogonalLoop=1;jettySize=auto;html=1;" edge="1" parent="E_i6VrLePPT64hlB4S9--1" source="E_i6VrLePPT64hlB4S9--54" target="E_i6VrLePPT64hlB4S9--50">
          <mxGeometry relative="1" as="geometry">
            <Array as="points">
              <mxPoint x="560" y="510" />
            </Array>
          </mxGeometry>
        </mxCell>
        <mxCell id="E_i6VrLePPT64hlB4S9--58" value="ตรวจสอบสถานะ status ที่แก้ไขเป็น 0 หรือ 1 ไหม&lt;span style=&quot;font-size: medium; text-align: start;&quot;&gt;&lt;/span&gt;" style="rounded=1;whiteSpace=wrap;html=1;" vertex="1" parent="E_i6VrLePPT64hlB4S9--1">
          <mxGeometry x="630" y="550" width="127.5" height="50" as="geometry" />
        </mxCell>
        <mxCell id="E_i6VrLePPT64hlB4S9--59" value="" style="edgeStyle=orthogonalEdgeStyle;rounded=0;orthogonalLoop=1;jettySize=auto;html=1;" edge="1" parent="E_i6VrLePPT64hlB4S9--1" source="E_i6VrLePPT64hlB4S9--50" target="E_i6VrLePPT64hlB4S9--58">
          <mxGeometry relative="1" as="geometry" />
        </mxCell>
        <mxCell id="E_i6VrLePPT64hlB4S9--60" value="ใช่" style="edgeLabel;html=1;align=center;verticalAlign=middle;resizable=0;points=[];" vertex="1" connectable="0" parent="E_i6VrLePPT64hlB4S9--59">
          <mxGeometry x="-0.3183" y="-1" relative="1" as="geometry">
            <mxPoint as="offset" />
          </mxGeometry>
        </mxCell>
        <mxCell id="E_i6VrLePPT64hlB4S9--61" value="สร้างข้อมูล ActivityLog&lt;span style=&quot;font-size: medium; text-align: start;&quot;&gt;&lt;/span&gt;" style="rounded=1;whiteSpace=wrap;html=1;" vertex="1" parent="E_i6VrLePPT64hlB4S9--1">
          <mxGeometry x="680" y="705" width="77.5" height="40" as="geometry" />
        </mxCell>
        <mxCell id="E_i6VrLePPT64hlB4S9--62" value="" style="edgeStyle=orthogonalEdgeStyle;rounded=0;orthogonalLoop=1;jettySize=auto;html=1;" edge="1" parent="E_i6VrLePPT64hlB4S9--1" source="E_i6VrLePPT64hlB4S9--58" target="E_i6VrLePPT64hlB4S9--75">
          <mxGeometry relative="1" as="geometry" />
        </mxCell>
        <mxCell id="E_i6VrLePPT64hlB4S9--63" value="บันทึกข้อมูล&lt;span style=&quot;font-size: medium; text-align: start;&quot;&gt;&lt;/span&gt;" style="rounded=1;whiteSpace=wrap;html=1;" vertex="1" parent="E_i6VrLePPT64hlB4S9--1">
          <mxGeometry x="680" y="791" width="77.5" height="40" as="geometry" />
        </mxCell>
        <mxCell id="E_i6VrLePPT64hlB4S9--64" value="" style="edgeStyle=orthogonalEdgeStyle;rounded=0;orthogonalLoop=1;jettySize=auto;html=1;" edge="1" parent="E_i6VrLePPT64hlB4S9--1" source="E_i6VrLePPT64hlB4S9--61" target="E_i6VrLePPT64hlB4S9--63">
          <mxGeometry relative="1" as="geometry" />
        </mxCell>
        <mxCell id="E_i6VrLePPT64hlB4S9--65" value="" style="group" vertex="1" connectable="0" parent="E_i6VrLePPT64hlB4S9--1">
          <mxGeometry x="470" y="656" width="77.5" height="175" as="geometry" />
        </mxCell>
        <mxCell id="E_i6VrLePPT64hlB4S9--66" value="แก้ไขข้อมูลประเทศ&lt;span style=&quot;font-size: medium; text-align: start;&quot;&gt;&lt;/span&gt;" style="rounded=1;whiteSpace=wrap;html=1;" vertex="1" parent="E_i6VrLePPT64hlB4S9--65">
          <mxGeometry width="77.5" height="40" as="geometry" />
        </mxCell>
        <mxCell id="E_i6VrLePPT64hlB4S9--67" value="สร้างข้อมูล ActivityLog&lt;span style=&quot;font-size: medium; text-align: start;&quot;&gt;&lt;/span&gt;" style="rounded=1;whiteSpace=wrap;html=1;" vertex="1" parent="E_i6VrLePPT64hlB4S9--65">
          <mxGeometry y="65" width="77.5" height="40" as="geometry" />
        </mxCell>
        <mxCell id="E_i6VrLePPT64hlB4S9--68" value="" style="edgeStyle=orthogonalEdgeStyle;rounded=0;orthogonalLoop=1;jettySize=auto;html=1;" edge="1" parent="E_i6VrLePPT64hlB4S9--65" source="E_i6VrLePPT64hlB4S9--66" target="E_i6VrLePPT64hlB4S9--67">
          <mxGeometry relative="1" as="geometry" />
        </mxCell>
        <mxCell id="E_i6VrLePPT64hlB4S9--69" value="บันทึกข้อมูล&lt;span style=&quot;font-size: medium; text-align: start;&quot;&gt;&lt;/span&gt;" style="rounded=1;whiteSpace=wrap;html=1;" vertex="1" parent="E_i6VrLePPT64hlB4S9--65">
          <mxGeometry y="135" width="77.5" height="40" as="geometry" />
        </mxCell>
        <mxCell id="E_i6VrLePPT64hlB4S9--70" value="" style="edgeStyle=orthogonalEdgeStyle;rounded=0;orthogonalLoop=1;jettySize=auto;html=1;" edge="1" parent="E_i6VrLePPT64hlB4S9--65" source="E_i6VrLePPT64hlB4S9--67" target="E_i6VrLePPT64hlB4S9--69">
          <mxGeometry relative="1" as="geometry" />
        </mxCell>
        <mxCell id="E_i6VrLePPT64hlB4S9--71" value="" style="edgeStyle=orthogonalEdgeStyle;rounded=0;orthogonalLoop=1;jettySize=auto;html=1;" edge="1" parent="E_i6VrLePPT64hlB4S9--1" source="E_i6VrLePPT64hlB4S9--75" target="E_i6VrLePPT64hlB4S9--66">
          <mxGeometry relative="1" as="geometry" />
        </mxCell>
        <mxCell id="E_i6VrLePPT64hlB4S9--72" value="ใช่" style="edgeLabel;html=1;align=center;verticalAlign=middle;resizable=0;points=[];" vertex="1" connectable="0" parent="E_i6VrLePPT64hlB4S9--71">
          <mxGeometry x="-0.2248" y="1" relative="1" as="geometry">
            <mxPoint as="offset" />
          </mxGeometry>
        </mxCell>
        <mxCell id="E_i6VrLePPT64hlB4S9--73" style="edgeStyle=orthogonalEdgeStyle;rounded=0;orthogonalLoop=1;jettySize=auto;html=1;entryX=0.546;entryY=0.05;entryDx=0;entryDy=0;entryPerimeter=0;" edge="1" parent="E_i6VrLePPT64hlB4S9--1" source="E_i6VrLePPT64hlB4S9--75" target="E_i6VrLePPT64hlB4S9--61">
          <mxGeometry relative="1" as="geometry">
            <Array as="points">
              <mxPoint x="722" y="675" />
              <mxPoint x="722" y="697" />
              <mxPoint x="722" y="697" />
            </Array>
          </mxGeometry>
        </mxCell>
        <mxCell id="E_i6VrLePPT64hlB4S9--74" value="ไม่" style="edgeLabel;html=1;align=center;verticalAlign=middle;resizable=0;points=[];" vertex="1" connectable="0" parent="E_i6VrLePPT64hlB4S9--73">
          <mxGeometry x="-0.4774" y="2" relative="1" as="geometry">
            <mxPoint as="offset" />
          </mxGeometry>
        </mxCell>
        <mxCell id="E_i6VrLePPT64hlB4S9--75" value="ใช่?" style="rhombus;whiteSpace=wrap;html=1;" vertex="1" parent="E_i6VrLePPT64hlB4S9--1">
          <mxGeometry x="619.9999999999998" y="645" width="60" height="60" as="geometry" />
        </mxCell>
        <mxCell id="E_i6VrLePPT64hlB4S9--76" style="edgeStyle=orthogonalEdgeStyle;rounded=0;orthogonalLoop=1;jettySize=auto;html=1;" edge="1" parent="E_i6VrLePPT64hlB4S9--1" source="E_i6VrLePPT64hlB4S9--69" target="E_i6VrLePPT64hlB4S9--17">
          <mxGeometry relative="1" as="geometry">
            <Array as="points">
              <mxPoint x="410" y="811" />
              <mxPoint x="410" y="710" />
            </Array>
          </mxGeometry>
        </mxCell>
        <mxCell id="E_i6VrLePPT64hlB4S9--77" style="edgeStyle=orthogonalEdgeStyle;rounded=0;orthogonalLoop=1;jettySize=auto;html=1;" edge="1" parent="E_i6VrLePPT64hlB4S9--1" source="E_i6VrLePPT64hlB4S9--78">
          <mxGeometry relative="1" as="geometry">
            <mxPoint x="360" y="730" as="targetPoint" />
          </mxGeometry>
        </mxCell>
        <mxCell id="E_i6VrLePPT64hlB4S9--78" value="rerturn Error Code&amp;nbsp;019&lt;span style=&quot;font-size: medium; text-align: start;&quot;&gt;&lt;/span&gt;" style="rounded=1;whiteSpace=wrap;html=1;" vertex="1" parent="E_i6VrLePPT64hlB4S9--1">
          <mxGeometry x="580" y="860" width="77.5" height="40" as="geometry" />
        </mxCell>
        <mxCell id="E_i6VrLePPT64hlB4S9--79" style="edgeStyle=orthogonalEdgeStyle;rounded=0;orthogonalLoop=1;jettySize=auto;html=1;entryX=1;entryY=0.5;entryDx=0;entryDy=0;exitX=0.5;exitY=1;exitDx=0;exitDy=0;" edge="1" parent="E_i6VrLePPT64hlB4S9--1" source="E_i6VrLePPT64hlB4S9--63" target="E_i6VrLePPT64hlB4S9--78">
          <mxGeometry relative="1" as="geometry" />
        </mxCell>
      </root>
    </mxGraphModel>
  </diagram>
</mxfile>
